<svg height="210" width="500">
   <polygon style="stroke:rgb(255,0,0);stroke-width:2" points="51,50 51,50 51,50 51,50 51,50 51,50 51,50 51,50 51,50 51,50 51,50 51,50 51,50 51,50 51,50 50,50 50,50 50,50 51,50 50,50 51,50 51,50 51,50 51,50 50,50 50,50 50,50 50,50 50,50 51,50 50,50 50,50 50,50 50,50 51,50 50,50 50,50 50,50 50,50 50,50 50,50 50,50 50,50 50,50 50,50 50,50 50,50 50,51 50,51 50,51 51,51 51,51 50,51 50,51 51,51 50,51 50,51 50,51 50,51 50,51 50,51 51,51 50,51 50,51 50,51 50,51 51,51 51,51 50,51 50,51 50,51 50,51 50,51 50,51 50,51 50,51 50,51 51,51 50,51 50,51 50,51 51,51 50,51 50,51 50,51 50,51 50,51 51,51 50,51 50,51 50,51 50,51 50,51 51,51 50,52 50,52 50,52 50,52 51,52 50,52 50,52 50,52 50,52 50,52 50,52 50,52 50,52 50,52 50,52 50,52 50,52 50,52 50,52 50,52 51,52 51,52 51,52 50,52 51,52 51,52 50,52 50,52 50,52 50,52 50,52 51,52 50,52 50,52 50,52 51,52 50,52 50,52 51,52 51,52 51,52 50,52 50,52 50,52 50,52 50,52 50,53 51,53 50,53 50,53 50,53 50,53 51,53 51,53 50,53 50,53 50,53 51,53 50,53 50,53 50,53 50,53 50,53 51,53 50,53 50,53 50,53 50,53 51,53 51,53 51,53 50,53 50,53 50,53 50,53 50,53 50,53 50,53 50,53 51,53 50,53 50,53 50,53 50,53 51,53 51,53 51,53 50,53 51,53 51,53 50,53 50,53 50,53 50,54 50,54 51,54 50,54 50,54 50,54 50,54 51,54 51,54 51,54 50,54 51,54 50,54 50,54 50,54 50,54 50,54 50,54 50,54 50,54 50,54 50,54 50,54 51,54 50,54 50,54 50,54 50,54 50,54 50,54 50,54 50,54 50,54 50,54 50,54 50,54 50,54 50,54 50,54 51,54 51,54 51,54 50,54 51,54 51,54 50,54 50,54 50,55 50,55 50,55 51,55 50,55 50,55 50,55 51,55 50,55 50,55 51,55 51,55 51,55 50,55 50,55 50,55 50,55 50,55 50,55 51,55 50,55 50,55 50,55 50,55 51,55 51,55 50,55 50,55 50,55 51,55 50,55 50,55 50,55 50,55 50,55 51,55 50,55 50,55 50,55 50,55 51,55 51,55 51,55 51,55 51,55 50,55 50,56 50,56 50,56 50,56 50,56 51,56 50,56 50,56 50,56 50,56 51,56 51,56 50,56 50,56 51,56 50,56 50,56 50,56 50,56 50,56 50,56 51,56 50,56 50,56 50,56 51,56 50,56 50,56 51,56 51,56 50,56 50,56 50,56 50,56 50,56 50,56 50,56 51,56 50,56 50,56 50,56 50,56 51,56 50,56 50,56 50,56 50,56 50,57 50,57 50,57 50,57 50,57 50,57 50,57 50,57 50,57 50,57 50,57 51,57 51,57 50,57 51,57 50,57 51,57 50,57 50,57 50,57 50,57 50,57 51,57 50,57 50,57 50,57 51,57 50,57 50,57 51,57 50,57 50,57 51,57 50,57 50,57 50,57 50,57 50,57 51,57 50,57 50,57 50,57 51,57 50,57 51,57 50,57 50,57 50,58 51,58 50,58 50,58 50,58 50,58 50,58 51,58 50,58 50,58 50,58 50,58 51,58 50,58 51,58 51,58 50,58 50,58 50,58 50,58 50,58 50,58 50,58 50,58 50,58 50,58 50,58 50,58 51,58 50,58 50,58 50,58 50,58 50,58 50,58 50,58 50,58 50,58 50,58 50,58 50,58 50,58 50,58 50,58 51,58 51,58 50,59 50,59 50,59 51,59 50,59 50,59 50,59 50,59 50,59 51,59 50,59 50,59 50,59 51,59 50,59 50,59 51,59 50,59 51,59 51,59 50,59 50,59 50,59 50,59 50,59 51,59 50,59 50,59 50,59 51,59 50,59 50,59 50,59 50,59 51,59 50,59 50,59 50,59 50,59 50,59 50,59 51,59 50,59 50,59 50,59 51,59 50,59 50,60 51,60 51,60 50,60 50,60 50,60 50,60 50,60 50,60 50,60 51,60 50,60 50,60 50,60 50,60 51,60 50,60 50,60 50,60 50,60 50,60 50,60 50,60 50,60 50,60 50,60 50,60 50,60 50,60 50,60 50,60 51,60 51,60 51,60 51,60 50,60 50,60 50,60 50,60 50,60 50,60 50,60 51,60 50,60 50,60 50,60 50,60 51,61 51,61 51,61 51,61 51,61 50,61 50,61 50,61 50,61 50,61 50,61 51,61 50,61 50,61 50,61 50,61 51,61 51,61 50,61 51,61 51,61 50,61 50,61 50,61 50,61 50,61 50,61 51,61 50,61 50,61 50,61 50,61 51,61 51,61 50,61 51,61 50,61 51,61 50,61 50,61 50,61 50,61 50,61 51,61 50,61 50,61 50,62 51,62 50,62 50,62 50,62 50,62 51,62 50,62 50,62 50,62 50,62 50,62 50,62 51,62 50,62 50,62 50,62 50,62 51,62 50,62 51,62 51,62 50,62 50,62 50,62 50,62 50,62 50,62 50,62 50,62 50,62 50,62 50,62 50,62 51,62 50,62 50,62 50,62 50,62 50,62 50,62 50,62 50,62 50,62 50,62 50,62 50,62 50,63 50,63 50,63 50,63 51,63 50,63 50,63 51,63 50,63 50,63 50,63 50,63 50,63 50,63 51,63 50,63 50,63 50,63 50,63 51,63 50,63 50,63 50,63 50,63 50,63 50,63 50,63 50,63 50,63 50,63 50,63 50,63 50,63 50,63 50,63 51,63 51,63 50,63 51,63 50,63 50,63 50,63 50,63 50,63 50,63 50,63 51,63 50,64 50,64 50,64 51,64 50,64 50,64 50,64 50,64 51,64 51,64 50,64 50,64 50,64 50,64 50,64 51,64 50,64 50,64 50,64 51,64 50,64 50,64 51,64 50,64 50,64 50,64 50,64 50,64 50,64 50,64 50,64 51,64 50,64 50,64 50,64 50,64 51,64 51,64 50,64 51,64 50,64 51,64 50,64 50,64 50,64 50,64 50,65 51,65 50,65 50,65 50,65 50,65 51,65 50,65 50,65 50,65 50,65 50,65 50,65 50,65 50,65 50,65 50,65 50,65 50,65 50,65 50,65 50,65 51,65 51,65 51,65 51,65 50,65 50,65 50,65 50,65 50,65 50,65 50,65 51,65 50,65 50,65 50,65 50,65 51,65 51,65 51,65 51,65 51,65 50,65 50,65 50,65 50,65 50,66 50,66 51,66 50,66 50,66 50,66 50,66 51,66 51,66 50,66 51,66 50,66 51,66 50,66 50,66 50,66 50,66 50,66 51,66 50,66 50,66 50,66 50,66 51,66 51,66 51,66 50,66 50,66 51,66 50,66 50,66 50,66 50,66 50,66 51,66 50,66 50,66 50,66 50,66 51,66 50,66 50,66 50,66 50,66 50,66 50,66 50,66 50,67 50,67 50,67 50,67 50,67 50,67 50,67 51,67 50,67 50,67 50,67 50,67 51,67 51,67 50,67 50,67 50,67 50,67 50,67 51,67 50,67 50,67 50,67 50,67 51,67 51,67 50,67 50,67 51,67 51,67 50,67 50,67 50,67 50,67 50,67 51,67 50,67 50,67 50,67 50,67 51,67 51,67 50,67 50,67 50,67 50,67 50,68 50,68 50,68 50,68 50,68 51,68 50,68 50,68 50,68 51,68 50,68 50,68 50,68 50,68 50,68 51,68 50,68 50,68 50,68 50,68 50,68 51,68 50,68 50,68 50,68 50,68 51,68 51,68 51,68 50,68 51,68 51,68 50,68 50,68 50,68 50,68 50,68 51,68 50,68 50,68 50,68 50,68 51,68 51,68 50,68 50,68 50,68 50,69 50,69 50,69 50,69 50,69 50,69 51,69 50,69 50,69 50,69 50,69 51,69 50,69 50,69 50,69 50,69 50,69 50,69 50,69 50,69 50,69 50,69 50,69 50,69 50,69 50,69 50,69 51,69 51,69 51,69 51,69 50,69 51,69 50,69 50,69 50,69 50,69 50,69 51,69 50,69 50,69 50,69 50,69 51,69 51,69 50,69 51,69 50,70 51,70 50,70 50,70 50,70 50,70 50,70 51,70 50,70 50,70 50,70 50,70 51,70 50,70 50,70 50,70 50,70 50,70 50,70 50,70 50,70 50,70 50,70 50,70 50,70 50,70 50,70 51,70 50,70 50,70 50,70 50,70 50,70 51,70 50,70 50,70 50,70 50,70 50,70 51,70 50,70 50,70 50,70 50,70 51,70 51,70 51,71 51,71 51,71 50,71 50,71 50,71 50,71 50,71 50,71 51,71 50,71 50,71 50,71 50,71 51,71 51,71 50,71 50,71 51,71 50,71 50,71 50,71 50,71 50,71 50,71 51,71 50,71 50,71 50,71 51,71 50,71 50,71 50,71 50,71 50,71 51,71 50,71 50,71 50,71 50,71 50,71 51,71 50,71 50,71 50,71 50,71 51,71 51,72 50,72 51,72 50,72 51,72 50,72 50,72 50,72 50,72 50,72 51,72 50,72 50,72 50,72 50,72 51,72 51,72 51,72 51,72 50,72 50,72 50,72 50,72 50,72 50,72 50,72 51,72 50,72 50,72 50,72 50,72 51,72 51,72 51,72 50,72 51,72 51,72 50,72 50,72 50,72 50,72 50,72 50,72 50,72 50,72 50,72 50,72 51,73 50,73 50,73 50,73 50,73 50,73 50,73 50,73 50,73 50,73 50,73 50,73 50,73 50,73 50,73 50,73 50,73 51,73 51,73 51,73 50,73 51,73 50,73 50,73 50,73 50,73 50,73 51,73 50,73 50,73 50,73 50,73 51,73 51,73 51,73 51,73 51,73 50,73 50,73 50,73 50,73 50,73 50,73 51,73 50,73 50,73 50,74 50,74 51,74 50,74 50,74 50,74 50,74 50,74 50,74 50,74 50,74 50,74 50,74 50,74 50,74 50,74 50,74 50,74 51,74 51,74 51,74 51,74 51,74 51,74 50,74 50,74 50,74 50,74 50,74 51,74 50,74 50,74 50,74 51,74 50,74 50,74 50,74 50,74 51,74 51,74 50,74 50,74 50,74 50,74 50,74 51,74 50,74 50,75 50,75 51,75 50,75 50,75 50,75 50,75 50,75 51,75 50,75 50,75 50,75 50,75 50,75 51,75 50,75 50,75 50,75 51,75 50,75 50,75 50,75 50,75 51,75 50,75 50,75 50,75 50,75 50,75 50,75 51,75 50,75 50,75 50,75 51,75 50,75 50,75 51,75 51,75 50,75 50,75 50,75 50,75 50,75 50,75 50,75 51,75 50,76 50,76 50,76 50,76 51,76 50,76 50,76 50,76 50,76 50,76 50,76 50,76 50,76 50,76 50,76 50,76 50,76 50,76 50,76 50,76 51,76 51,76 51,76 51,76 51,76 50,76 50,76 50,76 50,76 50,76 50,76 51,76 50,76 50,76 50,76 50,76 51,76 51,76 51,76 51,76 50,76 51,76 50,76 50,76 50,76 50,76 50,77 51,77 50,77 50,77 50,77 50,77 51,77 51,77 50,77 50,77 50,77 50,77 50,77 50,77 50,77 50,77 50,77 51,77 50,77 50,77 50,77 50,77 51,77 50,77 50,77 50,77 50,77 50,77 50,77 50,77 50,77 50,77 50,77 50,77 50,77 50,77 50,77 50,77 51,77 51,77 50,77 50,77 51,77 50,77 50,77 50,77 50,77 50,78 50,78 51,78 50,78 50,78 50,78 50,78 51,78 51,78 50,78 50,78 50,78 50,78 50,78 50,78 50,78 50,78 50,78 51,78 50,78 50,78 50,78 51,78 50,78 50,78 50,78 50,78 50,78 51,78 50,78 50,78 50,78 50,78 50,78 51,78 50,78 50,78 50,78 50,78 51,78 50,78 50,78 50,78 50,78 50,78 50,78 50,78 50,79 50,79 50,79 50,79 50,79 50,79 50,79 50,79 51,79 51,79 50,79 50,79 50,79 51,79 50,79 50,79 50,79 50,79 50,79 51,79 50,79 50,79 50,79 50,79 51,79 51,79 51,79 51,79 51,79 50,79 50,79 50,79 50,79 50,79 50,79 51,79 50,79 50,79 50,79 50,79 51,79 51,79 51,79 50,79 51,79 51,79 50,80 50,80 50,80 50,80 50,80 51,80 50,80 50,80 50,80 51,80 50,80 50,80 51,80 51,80 50,80 50,80 50,80 50,80 50,80 50,80 50,80 51,80 50,80 50,80 50,80 51,80 50,80 50,80 51,80 50,80 50,80 50,80 50,80 50,80 50,80 50,80 50,80 51,80 50,80 50,80 50,80 50,80 51,80 51,80 50,80 51,80 50,80 51,81 50,81 50,81 50,81 50,81 50,81 51,81 50,81 50,81 50,81 50,81 51,81 50,81 50,81 50,81 50,81 50,81 50,81 50,81 50,81 50,81 50,81 50,81 50,81 50,81 50,81 50,81 51,81 51,81 51,81 51,81 50,81 51,81 50,81 50,81 50,81 50,81 50,81 51,81 50,81 50,81 50,81 50,81 51,81 51,81 50,81 51,81 50,82 51,82 50,82 50,82 50,82 50,82 50,82 51,82 50,82 50,82 50,82 50,82 51,82 50,82 50,82 50,82 50,82 50,82 50,82 50,82 50,82 50,82 50,82 50,82 50,82 50,82 50,82 51,82 50,82 50,82 50,82 50,82 51,82 50,82 50,82 50,82 50,82 50,82 50,82 51,82 50,82 50,82 50,82 51,82 50,82 50,82 50,83 50,83 50,83 50,83 50,83 50,83 50,83 50,83 50,83 51,83 50,83 50,83 50,83 50,83 51,83 51,83 50,83 51,83 50,83 51,83 50,83 50,83 50,83 50,83 50,83 51,83 50,83 50,83 50,83 50,83 51,83 51,83 50,83 50,83 51,83 50,83 50,83 50,83 50,83 50,83 50,83 51,83 50,83 50,83 50,83 50,83 51,83 51,84 51,84 51,84 51,84 50,84 50,84 50,84 50,84 50,84 50,84 51,84 50,84 50,84 50,84 50,84 51,84 51,84 50,84 51,84 51,84 50,84 50,84 50,84 50,84 50,84 50,84 51,84 50,84 50,84 50,84 50,84 51,84 51,84 51,84 50,84 50,84 50,84 50,84 50,84 50,84 50,84 50,84 51,84 50,84 50,84 50,84 51,84 50,85 50,85 50,85 50,85 51,85 50,85 50,85 50,85 50,85 50,85 50,85 51,85 50,85 50,85 50,85 50,85 51,85 51,85 51,85 50,85 51,85 51,85 50,85 50,85 50,85 50,85 50,85 50,85 50,85 50,85 50,85 50,85 51,85 50,85 51,85 51,85 51,85 51,85 50,85 50,85 50,85 50,85 50,85 51,85 50,85 50,85 50,86 50,86 51,86 50,86 50,86 50,86 50,86 50,86 50,86 50,86 50,86 50,86 50,86 50,86 50,86 50,86 50,86 50,86 51,86 51,86 51,86 51,86 50,86 51,86 50,86 50,86 50,86 50,86 50,86 51,86 50,86 50,86 50,86 50,86 51,86 51,86 50,86 51,86 50,86 51,86 50,86 50,86 50,86 50,86 50,86 51,86 50,86 50,87 50,87 50,87 51,87 50,87 50,87 50,87 50,87 50,87 50,87 50,87 50,87 50,87 50,87 50,87 50,87 50,87 50,87 51,87 50,87 50,87 50,87 51,87 50,87 51,87 50,87 50,87 50,87 50,87 50,87 51,87 50,87 50,87 50,87 50,87 51,87 51,87 51,87 51,87 51,87 50,87 50,87 50,87 50,87 50,87 50,87 51,87 50,88 50,88 50,88 51,88 50,88 50,88 50,88 51,88 51,88 51,88 50,88 50,88 50,88 50,88 50,88 51,88 50,88 50,88 50,88 51,88 50,88 50,88 50,88 50,88 51,88 51,88 50,88 50,88 50,88 50,88 50,88 51,88 50,88 50,88 50,88 50,88 51,88 50,88 50,88 50,88 50,88 50,88 50,88 50,88 50,88 50,88 50,89 50,89 50,89 50,89 50,89 50,89 51,89 51,89 51,89 51,89 51,89 51,89 50,89 50,89 50,89 50,89 50,89 51,89 50,89 50,89 50,89 50,89 51,89 51,89 50,89 51,89 50,89 51,89 50,89 50,89 50,89 50,89 50,89 51,89 50,89 50,89 50,89 51,89 50,89 50,89 50,89 51,89 51,89 51,89 50,89 50,89 50,89 50,90 50,90 51,90 50,90 50,90 50,90 50,90 51,90 51,90 50,90 50,90 50,90 50,90 50,90 50,90 50,90 50,90 50,90 51,90 50,90 50,90 50,90 50,90 51,90 51,90 51,90 50,90 51,90 51,90 50,90 50,90 50,90 50,90 50,90 51,90 50,90 50,90 50,90 50,90 51,90 51,90 51,90 50,90 50,90 50,90 50,90 50,90 50,91 50,91 50,91 51,91 50,91 50,91 50,91 51,91 50,91 50,91 50,91 50,91 51,91 50,91 50,91 50,91 50,91 50,91 50,91 51,91 50,91 50,91 50,91 51,91 50,91 50,91 51,91 51,91 50,91 50,91 50,91 50,91 50,91 50,91 50,91 51,91 50,91 50,91 50,91 50,91 51,91 50,91 50,91 50,91 50,91 50,91 50,92 50,92 50,92 50,92 50,92 50,92 50,92 50,92 50,92 50,92 51,92 51,92 50,92 50,92 51,92 50,92 50,92 50,92 50,92 50,92 50,92 51,92 50,92 50,92 50,92 50,92 51,92 51,92 50,92 50,92 50,92 50,92 50,92 50,92 50,92 50,92 50,92 51,92 50,92 50,92 50,92 51,92 50,92 50,92 50,92 50,92 50,92 51,93 50,93 50,93 50,93 50,93 50,93 51,93 50,93 50,93 50,93 50,93 51,93 50,93 50,93 50,93 50,93 50,93 50,93 50,93 50,93 50,93 50,93 50,93 50,93 50,93 50,93 50,93 51,93 51,93 51,93 51,93 50,93 51,93 50,93 50,93 50,93 50,93 50,93 51,93 50,93 50,93 50,93 50,93 51,93 51,93 51,93 50,93 50,94 50,94 50,94 50,94 50,94 50,94 50,94 51,94 50,94 50,94 50,94 51,94 50,94 50,94 50,94 51,94 51,94 51,94 50,94 50,94 50,94 50,94 50,94 51,94 50,94 50,94 50,94 50,94 51,94 51,94 50,94 51,94 50,94 51,94 50,94 50,94 50,94 50,94 50,94 51,94 50,94 50,94 50,94 50,94 51,94 51,94 51,95 51,95 50,95 50,95 50,95 50,95 50,95 50,95 50,95 51,95 50,95 50,95 50,95 50,95 51,95 50,95 51,95 51,95 51,95 50,95 50,95 50,95 50,95 50,95 50,95 50,95 50,95 50,95 50,95 50,95 51,95 50,95 51,95 51,95 51,95 51,95 50,95 50,95 50,95 50,95 50,95 51,95 50,95 50,95 50,95 50,95 51,95 50,96 50,96 50,96 50,96 50,96 50,96 50,96 50,96 50,96 50,96 50,96 50,96 50,96 50,96 50,96 51,96 51,96 50,96 50,96 51,96 50,96 50,96 50,96 50,96 50,96 50,96 51,96 50,96 50,96 50,96 50,96 51,96 51,96 50,96 50,96 50,96 50,96 50,96 50,96 50,96 50,96 50,96 51,96 50,96 50,96 50,96 51,96 50,97 50,97 50,97 50,97 50,97 51,97 50,97 50,97 50,97 50,97 50,97 51,97 50,97 50,97 50,97 50,97 51,97 50,97 50,97 50,97 50,97 50,97 50,97 50,97 50,97 50,97 50,97 50,97 50,97 50,97 50,97 50,97 51,97 51,97 51,97 50,97 51,97 51,97 50,97 50,97 50,97 50,97 50,97 51,97 50,97 50,97 50,98 51,98 50,98 50,98 51,98 51,98 51,98 50,98 50,98 50,98 50,98 50,98 50,98 51,98 50,98 50,98 50,98 50,98 51,98 51,98 50,98 50,98 50,98 51,98 50,98 50,98 50,98 50,98 50,98 51,98 50,98 50,98 50,98 50,98 51,98 51,98 51,98 50,98 50,98 50,98 50,98 50,98 50,98 50,98 50,98 51,98 50,98 50,99 50,99 50,99 51,99 51,99 51,99 50,99 51,99 51,99 50,99 50,99 50,99 50,99 50,99 51,99 50,99 50,99 50,99 50,99 51,99 50,99 50,99 50,99 50,99 50,99 50,99 50,99 50,99 50,99 50,99 50,99 50,99 50,99 50,99 50,99 51,99 51,99 50,99 50,99 50,99 51,99 50,99 50,99 50,99 50,99 50,99 51,99 50,100 50,100 50,100 50,100 51,100 51,100 50,100 51,100 50,100 51,100 50,100 50,100 50,100 50,100 50,100 51,100 50,100 50,100 50,100 50,100 51,100 51,100 50,100 51,100 51,100 51,100 50,100 50,100 50,100 50,100 50,100 51,100 50,100 50,100 50,100 50,100 51,100 51,100 51,100 51,100 50,100 50,100 50,100 50,100 50,100 50,100 50,101 51,101 50,101 50,101 50,101 50,101 51,101 51,101 51,101 51,101 51,101 50,101 50,101 50,101 50,101 50,101 50,101 51,101 50,101 50,101 50,101 50,101 51,101 51,101 51,101 50,101 51,101 51,101 50,101 50,101 50,101 50,101 50,101 51,101 50,101 50,101 50,101 50,101 51,101 51,101 50,101 50,101 51,101 50,101 50,101 50,101 50,101 50,102 50,102 51,102 50,102 50,102 50,102 50,102 51,102 51,102 51,102 51,102 50,102 51,102 50,102 50,102 50,102 50,102 50,102 51,102 50,102 50,102 50,102 50,102 51,102 51,102 51,102 51,102 51,102 50,102 50,102 50,102 50,102 50,102 50,102 51,102 50,102 50,102 50,102 50,102 51,102 50,102 51,102 51,102 50,102 50,102 50,102 50,102 50,103 50,103 50,103 50,103 50,103 50,103 50,103 50,103 51,103 50,103 50,103 50,103 50,103 50,103 50,103 50,103 50,103 50,103 50,103 50,103 50,103 50,103 50,103 50,103 51,103 51,103 50,103 50,103 50,103 51,103 50,103 50,103 50,103 50,103 50,103 51,103 50,103 50,103 50,103 50,103 51,103 51,103 50,103 51,103 50,103 51,103 50,104 50,104 50,104 50,104 50,104 51,104 50,104 50,104 50,104 50,104 51,104 51,104 50,104 51,104 51,104 51,104 50,104 50,104 50,104 50,104 50,104 51,104 50,104 50,104 50,104 50,104 51,104 51,104 51,104 51,104 50,104 51,104 50,104 50,104 50,104 50,104 50,104 51,104 50,104 50,104 50,104 50,104 51,104 51,104 50,104 50,104 50,104 50,105 50,105 50,105 50,105 50,105 50,105 51,105 50,105 50,105 50,105 50,105 51,105 51,105 50,105 51,105 50,105 50,105 50,105 50,105 50,105 50,105 50,105 51,105 50,105 50,105 50,105 50,105 51,105 51,105 50,105 51,105 50,105 51,105 50,105 50,105 50,105 50,105 50,105 51,105 50,105 50,105 50,105 50,105 51,105 51,105 50,105 51,105 51,106 50,106 50,106 50,106 50,106 50,106 50,106 51,106 50,106 50,106 50,106 50,106 51,106 51,106 51,106 51,106 50,106 51,106 50,106 50,106 50,106 50,106 50,106 51,106 50,106 50,106 50,106 50,106 51,106 51,106 51,106 51,106 51,106 50,106 50,106 50,106 50,106 50,106 50,106 51,106 50,106 50,106 50,106 50,106 51,106 50,106 51,107 51,107 50,107 50,107 50,107 50,107 50,107 50,107 50,107 50,107 50,107 50,107 50,107 50,107 51,107 50,107 50,107 50,107 51,107 50,107 50,107 50,107 50,107 50,107 50,107 51,107 50,107 50,107 50,107 50,107 51,107 51,107 51,107 51,107 51,107 50,107 50,107 50,107 50,107 50,107 50,107 51,107 50,107 50,107 50,107 50,107 51,107 50,108 50,108 50,108 50,108 50,108 50,108 50,108 50,108 50,108 50,108 50,108 50,108 50,108 50,108 51,108 50,108 50,108 50,108 50,108 50,108 50,108 50,108 50,108 50,108 50,108 50,108 51,108 50,108 50,108 50,108 50,108 51,108 51,108 51,108 51,108 51,108 50,108 50,108 50,108 50,108 50,108 50,108 51,108 50,108 50,108 50,108 50,108 51,109 51,109 50,109 50,109 50,109 51,109 50,109 50,109 50,109 50,109 50,109 51,109 50,109 50,109 50,109 50,109 51,109 51,109 51,109 51,109 51,109 50,109 50,109 50,109 50,109 50,109 50,109 51,109 50,109 50,109 50,109 51,109 50,109 50,109 50,109 50,109 50,109 51,109 50,109 50,109 50,109 50,109 50,109 51,109 50,109 50,109 50,110 51,110 50,110 50,110 50,110 50,110 51,110 50,110 50,110 50,110 50,110 50,110 50,110 51,110 50,110 50,110 50,110 51,110 50,110 50,110 51,110 51,110 50,110 50,110 50,110 50,110 50,110 50,110 50,110 51,110 50,110 50,110 50,110 51,110 50,110 50,110 51,110 51,110 51,110 50,110 50,110 50,110 50,110 50,110 50,110 51,110 50,110 50,111 50,111 50,111 51,111 50,111 51,111 51,111 50,111 50,111 50,111 50,111 50,111 50,111 50,111 50,111 50,111 50,111 50,111 50,111 51,111 50,111 50,111 50,111 50,111 50,111 50,111 50,111 50,111 50,111 50,111 50,111 50,111 50,111 50,111 51,111 50,111 50,111 50,111 50,111 51,111 50,111 50,111 50,111 50,111 50,111 50,111 51,111 50,112 50,112 50,112 50,112 51,112 51,112 51,112 51,112 51,112 50,112 50,112 50,112 50,112 50,112 50,112 51,112 50,112 50,112 50,112 50,112 51,112 50,112 50,112 50,112 50,112 50,112 50,112 50,112 50,112 50,112 50,112 50,112 50,112 50,112 50,112 51,112 50,112 50,112 50,112 50,112 50,112 50,112 50,112 50,112 50,112 50,112 50,113 51,113 50,113 50,113 50,113 50,113 51,113 51,113 50,113 51,113 50,113 51,113 50,113 50,113 50,113 50,113 50,113 51,113 50,113 50,113 50,113 50,113 51,113 51,113 50,113 50,113 51,113 50,113 50,113 50,113 50,113 50,113 50,113 51,113 50,113 50,113 50,113 50,113 51,113 51,113 51,113 51,113 50,113 51,113 50,113 50,113 50,113 50,114 50,114 51,114 50,114 50,114 50,114 50,114 51,114 51,114 51,114 51,114 51,114 50,114 50,114 50,114 50,114 50,114 50,114 51,114 50,114 50,114 50,114 51,114 50,114 50,114 50,114 50,114 50,114 51,114 50,114 50,114 50,114 50,114 50,114 51,114 50,114 50,114 50,114 51,114 50,114 50,114 50,114 50,114 51,114 50,114 50,114 50,114 50,115 50,115 50,115 51,115 50,115 50,115 50,115 51,115 50,115 50,115 51,115 51,115 50,115 50,115 50,115 50,115 50,115 50,115 50,115 51,115 50,115 50,115 50,115 51,115 50,115 50,115 51,115 51,115 51,115 50,115 50,115 50,115 50,115 50,115 50,115 51,115 50,115 50,115 50,115 50,115 51,115 50,115 50,115 50,115 50,115 50,115 50,116 50,116 50,116 50,116 50,116 50,116 50,116 50,116 50,116 51,116 50,116 50,116 50,116 50,116 51,116 50,116 50,116 50,116 50,116 50,116 50,116 51,116 50,116 50,116 50,116 50,116 51,116 51,116 51,116 51,116 51,116 50,116 50,116 50,116 50,116 50,116 50,116 51,116 50,116 50,116 50,116 50,116 51,116 51,116 51,116 51,116 50,116 50,117 50,117 50,117 50,117 50,117 50,117 51,117 50,117 50,117 50,117 50,117 51,117 51,117 51,117 50,117 50,117 50,117 50,117 50,117 50,117 50,117 50,117 51,117 50,117 50,117 50,117 50,117 51,117 51,117 51,117 51,117 50,117 50,117 50,117 50,117 50,117 50,117 50,117 51,117 50,117 50,117 50,117 50,117 51,117 51,117 51,117 50,117 51,118 51,118 50,118 50,118 50,118 50,118 50,118 50,118 50,118 50,118 50,118 50,118 51,118 50,118 51,118 51,118 51,118 51,118 50,118 50,118 50,118 50,118 50,118 51,118 50,118 50,118 50,118 50,118 51,118 50,118 50,118 50,118 50,118 50,118 50,118 50,118 50,118 50,118 50,118 50,118 50,118 50,118 50,118 50,118 51,118 51,118 50,119 50,119 51,119 50,119 50,119 50,119 50,119 50,119 50,119 51,119 50,119 50,119 50,119 50,119 51,119 51,119 50,119 50,119 50,119 50,119 50,119 50,119 50,119 50,119 50,119 51,119 50,119 50,119 50,119 51,119 50,119 50,119 50,119 50,119 50,119 51,119 50,119 50,119 50,119 50,119 50,119 51,119 50,119 50,119 50,119 50,119 51,119 50,120 50,120 50,120 50,120 50,120 50,120 50,120 50,120 50,120 50,120 50,120 50,120 50,120 50,120 50,120 51,120 51,120 51,120 50,120 51,120 51,120 50,120 50,120 50,120 50,120 50,120 51,120 50,120 50,120 50,120 51,120 50,120 50,120 51,120 51,120 51,120 50,120 50,120 50,120 50,120 50,120 50,120 51,120 50,120 50,120 50,120 50,120 51,121 51,121 50,121 50,121 50,121 51,121 50,121 50,121 50,121 50,121 50,121 51,121 50,121 50,121 50,121 50,121 51,121 51,121 51,121 50,121 50,121 50,121 50,121 50,121 50,121 50,121 50,121 51,121 50,121 50,121 50,121 50,121 51,121 51,121 51,121 50,121 51,121 51,121 50,121 50,121 50,121 50,121 50,121 51,121 50,121 50,121 50,122 50,122 51,122 50,122 50,122 50,122 50,122 50,122 50,122 50,122 50,122 50,122 50,122 50,122 50,122 50,122 50,122 51,122 50,122 50,122 50,122 50,122 51,122 50,122 50,122 50,122 50,122 50,122 50,122 51,122 50,122 50,122 50,122 50,122 51,122 51,122 50,122 50,122 50,122 50,122 50,122 50,122 50,122 50,122 50,122 51,122 50,122 50,123 50,123 50,123 51,123 51,123 51,123 50,123 51,123 50,123 50,123 50,123 50,123 50,123 50,123 51,123 50,123 50,123 50,123 50,123 51,123 50,123 50,123 50,123 50,123 50,123 50,123 50,123 50,123 50,123 50,123 50,123 50,123 50,123 50,123 50,123 51,123 51,123 51,123 50,123 50,123 50,123 50,123 50,123 50,123 50,123 50,123 51,123 50,124 50,124 50,124 51,124 50,124 50,124 50,124 50,124 50,124 51,124 50,124 50,124 50,124 50,124 50,124 51,124 50,124 50,124 50,124 50,124 51,124 51,124 51,124 50,124 51,124 50,124 50,124 50,124 50,124 50,124 50,124 51,124 50,124 50,124 50,124 51,124 50,124 50,124 50,124 50,124 50,124 50,124 50,124 50,124 50,124 50,124 50,125 51,125 50,125 50,125 50,125 50,125 51,125 51,125 50,125 51,125 50,125 51,125 50,125 50,125 50,125 50,125 50,125 51,125 50,125 50,125 50,125 50,125 51,125 51,125 51,125 51,125 50,125 51,125 50,125 50,125 50,125 50,125 50,125 51,125 50,125 50,125 50,125 50,125 51,125 51,125 51,125 51,125 50,125 51,125 50,125 50,125 50,125 50,126 50,126 51,126 50,126 50,126 50,126 50,126 51,126 51,126 51,126 51,126 51,126 50,126 50,126 50,126 50,126 50,126 50,126 51,126 50,126 50,126 50,126 50,126 51,126 50,126 51,126 51,126 50,126 50,126 50,126 50,126 50,126 50,126 50,126 50,126 50,126 50,126 50,126 50,126 51,126 50,126 50,126 50,126 50,126 50,126 50,126 50,126 50,127 50,127 50,127 50,127 50,127 50,127 50,127 51,127 50,127 50,127 50,127 50,127 51,127 50,127 50,127 50,127 50,127 50,127 50,127 51,127 50,127 50,127 50,127 50,127 51,127 51,127 50,127 50,127 50,127 50,127 50,127 50,127 50,127 50,127 50,127 51,127 50,127 50,127 50,127 50,127 51,127 51,127 51,127 50,127 51,127 50,127 50,128 50,128 50,128 50,128 50,128 51,128 50,128 50,128 50,128 50,128 51,128 50,128 50,128 50,128 50,128 50,128 50,128 50,128 50,128 50,128 50,128 50,128 50,128 50,128 50,128 50,128 51,128 51,128 51,128 51,128 50,128 51,128 50,128 50,128 50,128 50,128 50,128 51,128 50,128 50,128 50,128 50,128 51,128 51,128 50,128 51,128 50,128 51,129 50,129 50,129 50,129 50,129 50,129 51,129 50,129 50,129 50,129 50,129 51,129 51,129 50,129 51,129 51,129 50,129 50,129 50,129 50,129 50,129 50,129 51,129 50,129 50,129 50,129 50,129 51,129 51,129 51,129 51,129 50,129 51,129 50,129 50,129 50,129 50,129 50,129 51,129 50,129 50,129 50,129 50,129 51,129 51,129 51,129 51,129 51,130 50,130 50,130 50,130 50,130 50,130 50,130 51,130 50,130 50,130 50,130 50,130 51,130 50,130 51,130 51,130 50,130 50,130 50,130 50,130 50,130 50,130 50,130 50,130 50,130 50,130 50,130 50,130 51,130 50,130 50,130 50,130 50,130 50,130 50,130 50,130 50,130 50,130 50,130 50,130 50,130 50,130 50,130 50,130 50,130 51,130 51,131 50,131 51,131 50,131 50,131 50,131 50,131 50,131 50,131 51,131 50,131 50,131 50,131 50,131 51,131 51,131 50,131 50,131 50,131 50,131 50,131 50,131 50,131 50,131 50,131 51,131 50,131 50,131 50,131 50,131 51,131 51,131 51,131 50,131 51,131 50,131 50,131 50,131 50,131 50,131 50,131 51,131 50,131 50,131 50,131 50,131 51,131 50,132 50,132 50,132 50,132 50,132 50,132 50,132 50,132 50,132 50,132 50,132 50,132 50,132 50,132 50,132 51,132 51,132 50,132 51,132 50,132 50,132 50,132 50,132 50,132 50,132 50,132 51,132 50,132 50,132 50,132 50,132 51,132 51,132 50,132 50,132 50,132 50,132 50,132 50,132 50,132 50,132 50,132 51,132 50,132 50,132 50,132 50,132 51,133 51,133 51,133 50,133 50,133 51,133 50,133 50,133 50,133 50,133 50,133 51,133 50,133 50,133 50,133 50,133 51,133 50,133 50,133 50,133 50,133 50,133 50,133 50,133 50,133 50,133 50,133 50,133 50,133 50,133 50,133 50,133 51,133 51,133 50,133 50,133 51,133 50,133 50,133 50,133 50,133 50,133 50,133 51,133 50,133 50,133 50,134 50,134 51,134 51,134 50,134 50,134 50,134 50,134 50,134 50,134 50,134 50,134 50,134 51,134 50,134 50,134 50,134 50,134 51,134 51,134 51,134 51,134 50,134 50,134 50,134 50,134 50,134 50,134 50,134 51,134 50,134 50,134 50,134 50,134 51,134 50,134 50,134 50,134 50,134 50,134 50,134 50,134 50,134 50,134 50,134 50,134 50,134 50,135 50,135 50,135 50,135 51,135 50,135 50,135 50,135 51,135 50,135 50,135 50,135 50,135 50,135 51,135 50,135 50,135 50,135 50,135 51,135 51,135 51,135 51,135 51,135 50,135 50,135 50,135 50,135 50,135 50,135 51,135 50,135 50,135 50,135 50,135 51,135 51,135 50,135 50,135 51,135 51,135 50,135 50,135 50,135 50,135 50,135 51,135 50,136 50,136 50,136 50,136 51,136 50,136 50,136 50,136 50,136 50,136 50,136 50,136 50,136 50,136 50,136 50,136 50,136 50,136 50,136 50,136 51,136 51,136 51,136 50,136 51,136 51,136 50,136 50,136 50,136 50,136 50,136 51,136 50,136 50,136 50,136 51,136 50,136 50,136 51,136 51,136 51,136 50,136 50,136 50,136 50,136 50,136 50,137 51,137 50,137 50,137 50,137 50,137 51,137 51,137 50,137 50,137 50,137 51,137 50,137 50,137 50,137 50,137 50,137 51,137 50,137 50,137 50,137 50,137 51,137 51,137 51,137 50,137 50,137 50,137 50,137 50,137 50,137 50,137 50,137 51,137 50,137 50,137 50,137 50,137 51,137 51,137 51,137 51,137 50,137 50,137 50,137 50,137 50,137 50,138 50,138 51,138 50,138 50,138 50,138 50,138 51,138 51,138 51,138 51,138 51,138 50,138 50,138 50,138 50,138 50,138 50,138 51,138 50,138 50,138 50,138 50,138 51,138 51,138 51,138 50,138 50,138 51,138 50,138 50,138 50,138 50,138 50,138 51,138 50,138 50,138 50,138 50,138 51,138 50,138 50,138 50,138 50,138 50,138 50,138 50,138 50,139 50,139 50,139 50,139 50,139 50,139 50,139 50,139 51,139 51,139 50,139 50,139 50,139 51,139 50,139 50,139 50,139 50,139 50,139 51,139 50,139 50,139 50,139 51,139 50,139 50,139 51,139 50,139 51,139 51,139 50,139 50,139 50,139 50,139 50,139 51,139 50,139 50,139 50,139 51,139 50,139 50,139 50,139 50,139 51,139 50,139 50,140 50,140 50,140 50,140 50,140 51,140 50,140 50,140 50,140 51,140 50,140 50,140 51,140 51,140 50,140 50,140 50,140 50,140 50,140 50,140 50,140 51,140 50,140 50,140 50,140 50,140 51,140 50,140 50,140 50,140 50,140 50,140 50,140 50,140 50,140 50,140 50,140 50,140 50,140 50,140 50,140 50,140 51,140 51,140 50,140 51,140 50,140 50,141 50,141 50,141 50,141 50,141 50,141 51,141 50,141 50,141 50,141 51,141 50,141 50,141 50,141 50,141 50,141 50,141 50,141 50,141 50,141 50,141 50,141 51,141 50,141 50,141 50,141 51,141 50,141 50,141 50,141 50,141 51,141 51,141 50,141 50,141 50,141 50,141 50,141 51,141 50,141 50,141 50,141 50,141 51,141 51,141 50,141 50,141 51,142 51,142 50,142 50,142 50,142 50,142 50,142 51,142 50,142 50,142 50,142 50,142 51,142 51,142 51,142 50,142 50,142 50,142 50,142 50,142 50,142 50,142 50,142 51,142 50,142 50,142 50,142 50,142 51,142 51,142 51,142 51,142 50,142 50,142 50,142 50,142 50,142 50,142 50,142 51,142 50,142 50,142 50,142 50,142 51,142 50,142 51,143 51,143 51,143 50,143 50,143 50,143 50,143 50,143 50,143 50,143 50,143 50,143 " />
   <polygon style="stroke:rgb(255,0,0);stroke-width:2" points="1,0 1,0 1,0 1,0 1,0 1,0 1,0 1,0 1,0 1,0 1,0 1,0 1,0 1,0 1,0 0,0 0,0 0,0 1,0 0,0 1,0 1,0 1,0 1,0 0,0 0,0 0,0 0,0 0,0 1,0 0,0 0,0 0,0 0,0 1,0 1,1 1,1 1,1 1,1 1,1 1,1 1,1 1,1 1,1 1,1 1,1 1,1 1,1 1,1 1,1 2,1 2,1 1,1 1,1 2,1 1,1 1,1 1,1 1,1 1,1 1,1 2,1 1,1 1,1 1,1 1,1 2,1 2,1 1,1 1,1 2,2 2,2 2,2 2,2 2,2 2,2 2,2 3,2 2,2 2,2 2,2 3,2 2,2 2,2 2,2 2,2 2,2 3,2 2,2 2,2 2,2 2,2 2,2 3,2 2,2 2,2 2,2 2,2 3,2 2,2 2,2 2,2 2,2 2,2 2,2 3,3 3,3 3,3 3,3 3,3 3,3 3,3 3,3 3,3 4,3 4,3 4,3 3,3 4,3 4,3 3,3 3,3 3,3 3,3 3,3 4,3 3,3 3,3 3,3 4,3 3,3 3,3 4,3 4,3 4,3 3,3 3,3 3,3 3,3 3,3 4,4 5,4 4,4 4,4 4,4 4,4 5,4 5,4 4,4 4,4 4,4 5,4 4,4 4,4 4,4 4,4 4,4 5,4 4,4 4,4 4,4 4,4 5,4 5,4 5,4 4,4 4,4 4,4 4,4 4,4 4,4 4,4 4,4 5,4 4,4 5,5 5,5 5,5 6,5 6,5 6,5 5,5 6,5 6,5 5,5 5,5 5,5 5,5 5,5 6,5 5,5 5,5 5,5 5,5 6,5 6,5 6,5 5,5 6,5 5,5 5,5 5,5 5,5 5,5 5,5 5,5 5,5 5,5 5,5 5,5 7,6 6,6 6,6 6,6 6,6 6,6 6,6 6,6 6,6 6,6 6,6 6,6 6,6 6,6 6,6 6,6 7,6 7,6 7,6 6,6 7,6 7,6 6,6 6,6 6,6 6,6 6,6 7,6 6,6 6,6 6,6 7,6 6,6 6,6 7,6 8,7 8,7 7,7 7,7 7,7 7,7 7,7 7,7 8,7 7,7 7,7 7,7 7,7 8,7 8,7 7,7 7,7 7,7 8,7 7,7 7,7 7,7 7,7 7,7 8,7 7,7 7,7 7,7 7,7 8,7 8,7 8,7 8,7 8,7 7,7 8,8 8,8 8,8 8,8 8,8 9,8 8,8 8,8 8,8 8,8 9,8 9,8 8,8 8,8 9,8 8,8 8,8 8,8 8,8 8,8 8,8 9,8 8,8 8,8 8,8 9,8 8,8 8,8 9,8 9,8 8,8 8,8 8,8 8,8 8,8 9,9 9,9 10,9 9,9 9,9 9,9 9,9 10,9 9,9 9,9 9,9 9,9 9,9 9,9 9,9 9,9 9,9 9,9 9,9 9,9 9,9 9,9 9,9 10,9 10,9 9,9 10,9 9,9 10,9 9,9 9,9 9,9 9,9 9,9 10,9 10,10 10,10 10,10 11,10 10,10 10,10 11,10 10,10 10,10 11,10 10,10 10,10 10,10 10,10 10,10 11,10 10,10 10,10 10,10 11,10 10,10 11,10 10,10 10,10 10,10 11,10 10,10 10,10 10,10 10,10 10,10 11,10 10,10 10,10 10,10 11,11 12,11 11,11 12,11 12,11 11,11 11,11 11,11 11,11 11,11 11,11 11,11 11,11 11,11 11,11 11,11 11,11 12,11 11,11 11,11 11,11 11,11 11,11 11,11 11,11 11,11 11,11 11,11 11,11 11,11 11,11 11,11 11,11 12,11 12,11 12,12 12,12 12,12 13,12 12,12 12,12 12,12 12,12 12,12 13,12 12,12 12,12 12,12 13,12 12,12 12,12 13,12 12,12 13,12 13,12 12,12 12,12 12,12 12,12 12,12 13,12 12,12 12,12 12,12 13,12 12,12 12,12 12,12 12,12 13,12 13,13 13,13 13,13 13,13 13,13 13,13 14,13 13,13 13,13 13,13 14,13 13,13 13,13 14,13 14,13 13,13 13,13 13,13 13,13 13,13 13,13 13,13 14,13 13,13 13,13 13,13 13,13 14,13 13,13 13,13 13,13 13,13 13,13 13,13 13,13 14,14 14,14 14,14 14,14 14,14 14,14 14,14 14,14 15,14 15,14 15,14 15,14 14,14 14,14 14,14 14,14 14,14 14,14 14,14 15,14 14,14 14,14 14,14 14,14 15,14 15,14 15,14 15,14 15,14 14,14 14,14 14,14 14,14 14,14 14,14 16,15 15,15 15,15 15,15 15,15 16,15 16,15 15,15 16,15 16,15 15,15 15,15 15,15 15,15 15,15 15,15 16,15 15,15 15,15 15,15 15,15 16,15 16,15 15,15 16,15 15,15 16,15 15,15 15,15 15,15 15,15 15,15 16,15 15,15 15,15 16,16 17,16 16,16 16,16 16,16 16,16 17,16 16,16 16,16 16,16 16,16 16,16 16,16 17,16 16,16 16,16 16,16 16,16 17,16 16,16 17,16 17,16 16,16 16,16 16,16 16,16 16,16 16,16 16,16 16,16 16,16 16,16 16,16 16,16 17,16 17,17 17,17 17,17 17,17 17,17 17,17 17,17 17,17 17,17 17,17 17,17 17,17 17,17 17,17 17,17 17,17 18,17 17,17 17,17 18,17 17,17 17,17 17,17 17,17 17,17 17,17 18,17 17,17 17,17 17,17 17,17 18,17 17,17 17,17 17,17 18,18 18,18 18,18 18,18 18,18 18,18 18,18 18,18 18,18 18,18 18,18 18,18 19,18 19,18 18,18 19,18 18,18 18,18 18,18 18,18 18,18 18,18 18,18 19,18 18,18 18,18 18,18 19,18 18,18 18,18 18,18 18,18 19,18 19,18 18,18 19,19 19,19 19,19 19,19 20,19 19,19 19,19 19,19 20,19 19,19 19,19 20,19 19,19 19,19 19,19 19,19 19,19 19,19 19,19 19,19 20,19 19,19 19,19 19,19 19,19 20,19 20,19 19,19 20,19 19,19 20,19 19,19 19,19 19,19 19,19 20,20 21,20 20,20 20,20 20,20 20,20 21,20 20,20 20,20 20,20 20,20 20,20 20,20 20,20 20,20 20,20 20,20 20,20 20,20 20,20 20,20 20,20 21,20 21,20 21,20 21,20 20,20 20,20 20,20 20,20 20,20 20,20 20,20 21,20 20,20 21,21 21,21 21,21 22,21 22,21 22,21 22,21 22,21 21,21 21,21 21,21 21,21 21,21 21,21 22,21 21,21 21,21 21,21 21,21 22,21 22,21 21,21 22,21 21,21 22,21 21,21 21,21 21,21 21,21 21,21 22,21 21,21 21,21 21,21 21,21 23,22 23,22 23,22 22,22 22,22 23,22 22,22 22,22 22,22 22,22 22,22 23,22 22,22 22,22 22,22 22,22 23,22 22,22 22,22 22,22 22,22 22,22 22,22 22,22 22,22 22,22 22,22 22,22 22,22 22,22 22,22 23,22 22,22 22,22 22,22 23,23 24,23 24,23 23,23 23,23 23,23 23,23 23,23 24,23 23,23 23,23 23,23 23,23 24,23 24,23 23,23 23,23 24,23 24,23 23,23 23,23 23,23 23,23 23,23 24,23 23,23 23,23 23,23 23,23 24,23 24,23 23,23 23,23 23,23 23,23 24,24 24,24 24,24 24,24 24,24 25,24 24,24 24,24 24,24 25,24 24,24 24,24 24,24 24,24 24,24 25,24 24,24 24,24 24,24 24,24 24,24 25,24 24,24 24,24 24,24 24,24 25,24 25,24 25,24 24,24 25,24 25,24 24,24 24,24 24,24 25,25 25,25 26,25 25,25 25,25 25,25 25,25 26,25 26,25 25,25 25,25 25,25 25,25 25,25 25,25 25,25 25,25 25,25 26,25 25,25 25,25 25,25 25,25 26,25 25,25 25,25 25,25 25,25 25,25 25,25 25,25 25,25 25,25 25,25 25,25 26,26 26,26 26,26 26,26 27,26 27,26 27,26 27,26 26,26 27,26 26,26 26,26 26,26 26,26 26,26 27,26 26,26 26,26 26,26 26,26 27,26 27,26 26,26 27,26 26,26 27,26 26,26 26,26 26,26 26,26 26,26 27,26 26,26 26,26 26,26 27,27 28,27 27,27 27,27 27,27 27,27 27,27 27,27 27,27 27,27 27,27 27,27 27,27 27,27 27,27 27,27 28,27 27,27 27,27 27,27 27,27 27,27 28,27 27,27 27,27 27,27 27,27 27,27 28,27 27,27 27,27 27,27 27,27 28,27 28,27 29,28 29,28 29,28 28,28 28,28 28,28 28,28 28,28 28,28 29,28 28,28 28,28 28,28 28,28 29,28 29,28 28,28 28,28 29,28 28,28 28,28 28,28 28,28 28,28 28,28 29,28 28,28 28,28 28,28 29,28 28,28 28,28 28,28 28,28 28,28 29,28 29,29 29,29 29,29 29,29 29,29 30,29 29,29 29,29 29,29 29,29 30,29 30,29 29,29 30,29 29,29 30,29 29,29 29,29 29,29 29,29 29,29 30,29 29,29 29,29 29,29 29,29 30,29 30,29 30,29 30,29 29,29 29,29 29,29 29,29 30,30 30,30 30,30 31,30 30,30 30,30 30,30 30,30 31,30 31,30 31,30 30,30 31,30 31,30 30,30 30,30 30,30 30,30 30,30 30,30 30,30 30,30 30,30 30,30 31,30 30,30 30,30 30,30 30,30 30,30 30,30 30,30 30,30 30,30 30,30 31,31 31,31 31,31 31,31 31,31 31,31 32,31 32,31 32,31 31,31 32,31 31,31 31,31 31,31 31,31 31,31 32,31 31,31 31,31 31,31 31,31 32,31 32,31 32,31 32,31 32,31 31,31 31,31 31,31 31,31 31,31 31,31 32,31 31,31 31,31 32,32 32,32 33,32 32,32 32,32 32,32 32,32 32,32 32,32 32,32 32,32 32,32 32,32 32,32 32,32 32,32 32,32 32,32 33,32 33,32 33,32 33,32 33,32 33,32 32,32 32,32 32,32 32,32 32,32 33,32 32,32 32,32 32,32 33,32 32,32 33,33 33,33 33,33 34,33 34,33 33,33 33,33 33,33 33,33 33,33 34,33 33,33 33,33 33,33 34,33 33,33 33,33 33,33 33,33 33,33 34,33 33,33 33,33 33,33 33,33 33,33 34,33 33,33 33,33 33,33 34,33 33,33 33,33 33,33 33,33 35,34 34,34 34,34 34,34 34,34 34,34 34,34 35,34 34,34 34,34 34,34 35,34 34,34 34,34 35,34 35,34 34,34 34,34 34,34 34,34 34,34 34,34 34,34 35,34 34,34 34,34 34,34 34,34 35,34 34,34 34,34 34,34 34,34 34,34 34,34 35,35 35,35 35,35 35,35 35,35 35,35 35,35 35,35 35,35 36,35 36,35 36,35 36,35 36,35 35,35 35,35 35,35 35,35 35,35 35,35 36,35 35,35 35,35 35,35 35,35 36,35 36,35 36,35 36,35 35,35 36,35 35,35 35,35 35,35 35,35 36,36 37,36 36,36 36,36 36,36 36,36 37,36 37,36 36,36 36,36 36,36 36,36 36,36 36,36 36,36 36,36 36,36 37,36 36,36 36,36 36,36 36,36 37,36 36,36 36,36 36,36 36,36 36,36 36,36 36,36 36,36 36,36 36,36 36,36 36,36 37,37 37,37 37,37 38,37 38,37 37,37 37,37 38,37 37,37 37,37 37,37 37,37 37,37 37,37 38,37 37,37 37,37 37,37 37,37 38,37 38,37 37,37 37,37 37,37 37,37 37,37 37,37 37,37 37,37 37,37 38,37 37,37 37,37 37,37 38,37 38,38 38,38 38,38 38,38 38,38 39,38 38,38 38,38 38,38 38,38 38,38 39,38 38,38 38,38 38,38 38,38 39,38 38,38 38,38 38,38 38,38 38,38 38,38 38,38 38,38 38,38 38,38 38,38 38,38 38,38 38,38 38,38 39,38 39,38 38,38 39,39 39,39 40,39 39,39 39,39 39,39 39,39 39,39 40,39 39,39 39,39 39,39 39,39 40,39 40,39 40,39 40,39 40,39 39,39 39,39 39,39 39,39 39,39 39,39 40,39 39,39 39,39 39,39 39,39 40,39 40,39 40,39 39,39 40,39 40,39 40,40 40,40 40,40 40,40 40,40 41,40 40,40 40,40 40,40 41,40 40,40 40,40 41,40 41,40 40,40 40,40 40,40 40,40 40,40 40,40 40,40 41,40 40,40 40,40 40,40 41,40 40,40 40,40 41,40 40,40 40,40 40,40 40,40 40,40 40,40 41,41 41,41 42,41 41,41 41,41 41,41 41,41 42,41 42,41 41,41 42,41 41,41 42,41 41,41 41,41 41,41 41,41 41,41 42,41 41,41 41,41 41,41 41,41 42,41 41,41 41,41 41,41 41,41 41,41 41,41 41,41 41,41 41,41 41,41 41,41 42,42 42,42 42,42 42,42 43,42 43,42 43,42 43,42 42,42 43,42 42,42 42,42 42,42 42,42 42,42 43,42 42,42 42,42 42,42 42,42 43,42 43,42 42,42 43,42 42,42 43,42 42,42 42,42 42,42 42,42 42,42 43,42 42,42 42,42 42,42 43,43 44,43 43,43 43,43 43,43 43,43 43,43 43,43 43,43 43,43 43,43 43,43 43,43 43,43 43,43 43,43 44,43 43,43 43,43 43,43 43,43 44,43 43,43 43,43 43,43 43,43 43,43 43,43 44,43 43,43 43,43 43,43 44,43 43,43 43,43 44,44 44,44 44,44 44,44 44,44 44,44 44,44 44,44 44,44 45,44 44,44 44,44 44,44 44,44 45,44 45,44 44,44 45,44 44,44 45,44 44,44 44,44 44,44 44,44 44,44 45,44 44,44 44,44 44,44 44,44 45,44 45,44 44,44 44,44 45,44 45,45 45,45 45,45 45,45 45,45 45,45 46,45 45,45 45,45 45,45 45,45 46,45 46,45 46,45 46,45 46,45 45,45 45,45 45,45 45,45 45,45 45,45 46,45 45,45 45,45 45,45 45,45 46,45 46,45 45,45 46,45 46,45 45,45 45,45 45,45 46,46 46,46 46,46 47,46 46,46 46,46 46,46 46,46 47,46 47,46 47,46 46,46 46,46 46,46 46,46 46,46 46,46 46,46 46,46 47,46 46,46 46,46 46,46 47,46 46,46 46,46 46,46 46,46 47,46 46,46 46,46 46,46 46,46 46,46 46,46 48,47 47,47 47,47 47,47 47,47 48,47 48,47 48,47 47,47 48,47 48,47 47,47 47,47 47,47 47,47 47,47 47,47 47,47 47,47 47,47 47,47 48,47 47,47 48,47 48,47 48,47 48,47 47,47 47,47 47,47 47,47 47,47 48,47 47,47 47,47 48,48 48,48 49,48 48,48 48,48 48,48 48,48 48,48 48,48 48,48 48,48 48,48 48,48 48,48 48,48 48,48 48,48 48,48 49,48 49,48 49,48 49,48 48,48 49,48 48,48 48,48 48,48 48,48 48,48 49,48 48,48 48,48 48,48 48,48 49,48 50,49 49,49 50,49 49,49 50,49 49,49 49,49 49,49 49,49 49,49 50,49 49,49 49,49 49,49 49,49 50,49 49,49 49,49 49,49 49,49 49,49 49,49 49,49 49,49 49,49 49,49 49,49 49,49 49,49 49,49 50,49 49,49 49,49 49,49 50,49 50,50 51,50 50,50 50,50 50,50 50,50 50,50 51,50 50,50 50,50 50,50 50,50 51,50 51,50 51,50 51,50 51,50 50,50 50,50 50,50 50,50 50,50 50,50 51,50 50,50 50,50 50,50 51,50 50,50 50,50 50,50 51,50 51,50 51,50 50,50 51,51 51,51 51,51 51,51 52,51 51,51 51,51 51,51 52,51 51,51 51,51 51,51 51,51 52,51 52,51 51,51 51,51 51,51 51,51 51,51 52,51 51,51 51,51 51,51 51,51 52,51 51,51 51,51 51,51 51,51 51,51 51,51 51,51 51,51 51,51 52,52 52,52 52,52 52,52 52,52 52,52 53,52 53,52 53,52 53,52 53,52 53,52 52,52 52,52 52,52 52,52 52,52 53,52 52,52 52,52 52,52 52,52 53,52 53,52 52,52 53,52 52,52 53,52 52,52 52,52 52,52 52,52 52,52 53,52 52,52 53,53 53,53 54,53 53,53 53,53 53,53 54,53 54,53 54,53 53,53 53,53 53,53 53,53 53,53 54,53 53,53 53,53 53,53 53,53 54,53 54,53 53,53 53,53 53,53 53,53 53,53 53,53 53,53 53,53 53,53 54,53 53,53 53,53 53,53 53,53 55,54 55,54 55,54 54,54 55,54 55,54 54,54 54,54 54,54 54,54 54,54 55,54 54,54 54,54 54,54 54,54 55,54 55,54 55,54 54,54 54,54 54,54 54,54 54,54 54,54 54,54 54,54 55,54 54,54 54,54 54,54 55,54 54,54 54,54 54,54 55,55 56,55 55,55 55,55 55,55 55,55 55,55 55,55 56,55 55,55 55,55 55,55 56,55 55,55 55,55 56,55 56,55 55,55 55,55 55,55 55,55 55,55 55,55 55,55 56,55 55,55 55,55 55,55 55,55 56,55 55,55 55,55 55,55 55,55 55,55 56,56 56,56 56,56 56,56 56,56 56,56 56,56 56,56 56,56 56,56 57,56 57,56 56,56 56,56 57,56 56,56 56,56 56,56 56,56 56,56 56,56 57,56 56,56 56,56 56,56 56,56 57,56 57,56 56,56 56,56 56,56 56,56 56,56 56,56 56,56 56,56 57,57 58,57 57,57 57,57 57,57 58,57 57,57 57,57 57,57 57,57 57,57 58,57 57,57 57,57 57,57 57,57 57,57 58,57 57,57 57,57 57,57 57,57 58,57 57,57 57,57 57,57 57,57 57,57 57,57 57,57 57,57 57,57 57,57 57,57 57,57 58,58 58,58 58,58 59,58 59,58 59,58 59,58 58,58 59,58 58,58 58,58 58,58 58,58 58,58 59,58 58,58 58,58 58,58 58,58 59,58 59,58 59,58 58,58 58,58 58,58 58,58 58,58 58,58 58,58 58,58 59,58 58,58 58,58 58,58 60,59 59,59 59,59 59,59 60,59 60,59 60,59 59,59 59,59 59,59 59,59 59,59 60,59 59,59 59,59 59,59 59,59 60,59 60,59 59,59 60,59 59,59 60,59 59,59 59,59 59,59 59,59 59,59 60,59 59,59 59,59 59,59 59,59 60,59 60,59 61,60 61,60 60,60 60,60 60,60 60,60 60,60 60,60 60,60 61,60 60,60 60,60 60,60 60,60 61,60 60,60 61,60 61,60 61,60 60,60 60,60 60,60 60,60 60,60 60,60 60,60 60,60 60,60 60,60 60,60 61,60 60,60 61,60 61,60 61,60 62,61 61,61 61,61 61,61 61,61 61,61 62,61 61,61 61,61 61,61 61,61 62,61 61,61 61,61 61,61 61,61 61,61 61,61 61,61 61,61 61,61 61,61 61,61 61,61 61,61 61,61 61,61 62,61 62,61 61,61 61,61 62,61 61,61 61,61 61,61 62,62 62,62 62,62 63,62 62,62 62,62 62,62 62,62 63,62 63,62 62,62 62,62 62,62 62,62 62,62 62,62 62,62 62,62 62,62 63,62 62,62 62,62 62,62 63,62 62,62 62,62 62,62 62,62 62,62 63,62 62,62 62,62 62,62 62,62 62,62 64,63 63,63 63,63 63,63 63,63 64,63 63,63 63,63 63,63 63,63 63,63 63,63 63,63 63,63 63,63 63,63 63,63 63,63 63,63 63,63 63,63 64,63 64,63 64,63 63,63 64,63 64,63 63,63 63,63 63,63 63,63 63,63 64,63 63,63 63,63 64,64 65,64 64,64 64,64 65,64 65,64 65,64 64,64 64,64 64,64 64,64 64,64 64,64 65,64 64,64 64,64 64,64 64,64 65,64 65,64 64,64 64,64 64,64 65,64 64,64 64,64 64,64 64,64 64,64 65,64 64,64 64,64 64,64 64,64 65,64 66,65 66,65 65,65 65,65 65,65 65,65 65,65 65,65 65,65 65,65 66,65 65,65 65,65 65,65 65,65 66,65 66,65 66,65 65,65 66,65 66,65 65,65 65,65 65,65 65,65 65,65 66,65 65,65 65,65 65,65 65,65 66,65 65,65 65,65 65,65 66,66 66,66 66,66 66,66 66,66 66,66 66,66 66,66 66,66 66,66 66,66 66,66 67,66 67,66 66,66 66,66 66,66 67,66 66,66 66,66 66,66 66,66 66,66 67,66 66,66 66,66 66,66 66,66 67,66 67,66 66,66 67,66 66,66 67,66 66,66 67,67 67,67 67,67 67,67 68,67 67,67 67,67 67,67 67,67 68,67 68,67 67,67 68,67 68,67 68,67 67,67 67,67 67,67 67,67 67,67 68,67 67,67 67,67 67,67 67,67 68,67 68,67 68,67 68,67 67,67 67,67 67,67 67,67 67,67 67,67 68,68 69,68 68,68 68,68 68,68 68,68 69,68 69,68 69,68 69,68 69,68 68,68 68,68 68,68 68,68 68,68 68,68 69,68 68,68 68,68 68,68 68,68 69,68 69,68 69,68 68,68 69,68 69,68 68,68 68,68 68,68 68,68 68,68 69,68 68,68 69,69 69,69 69,69 70,69 70,69 69,69 69,69 70,69 69,69 69,69 69,69 69,69 69,69 69,69 70,69 69,69 69,69 69,69 69,69 70,69 70,69 70,69 70,69 69,69 70,69 69,69 69,69 69,69 69,69 69,69 70,69 69,69 69,69 69,69 69,69 71,70 71,70 71,70 71,70 71,70 70,70 70,70 70,70 70,70 70,70 70,70 71,70 70,70 70,70 70,70 70,70 71,70 70,70 71,70 71,70 70,70 70,70 70,70 70,70 70,70 70,70 70,70 70,70 70,70 70,70 70,70 70,70 71,70 70,70 70,70 71,71 71,71 71,71 71,71 71,71 71,71 71,71 71,71 71,71 71,71 71,71 71,71 71,71 72,71 72,71 71,71 71,71 71,71 72,71 71,71 71,71 71,71 71,71 71,71 72,71 71,71 71,71 71,71 71,71 72,71 72,71 71,71 72,71 71,71 72,71 72,72 72,72 72,72 72,72 72,72 73,72 72,72 72,72 72,72 72,72 73,72 73,72 72,72 73,72 73,72 73,72 72,72 72,72 72,72 72,72 72,72 73,72 72,72 72,72 72,72 72,72 73,72 73,72 73,72 73,72 72,72 73,72 72,72 72,72 72,72 73,73 73,73 74,73 73,73 73,73 73,73 73,73 74,73 74,73 73,73 73,73 73,73 73,73 73,73 73,73 73,73 73,73 73,73 74,73 73,73 73,73 73,73 73,73 74,73 74,73 73,73 74,73 73,73 73,73 73,73 73,73 73,73 73,73 73,73 74,73 74,74 74,74 74,74 74,74 75,74 75,74 74,74 75,74 74,74 75,74 74,74 74,74 74,74 74,74 74,74 75,74 74,74 74,74 74,74 74,74 75,74 75,74 74,74 75,74 75,74 74,74 74,74 74,74 74,74 74,74 74,74 75,74 74,74 74,74 74,74 75,75 76,75 76,75 76,75 76,75 75,75 76,75 75,75 75,75 75,75 75,75 75,75 76,75 75,75 75,75 75,75 75,75 76,75 76,75 76,75 76,75 76,75 75,75 75,75 75,75 75,75 75,75 75,75 76,75 75,75 75,75 75,75 75,75 76,75 75,75 77,76 77,76 76,76 76,76 76,76 76,76 76,76 76,76 76,76 76,76 76,76 76,76 76,76 76,76 77,76 76,76 76,76 76,76 77,76 76,76 76,76 76,76 76,76 76,76 76,76 77,76 76,76 76,76 76,76 76,76 77,76 77,76 77,76 77,76 77,76 77,77 77,77 77,77 77,77 77,77 77,77 78,77 77,77 77,77 77,77 77,77 78,77 77,77 77,77 77,77 77,77 77,77 77,77 77,77 77,77 77,77 77,77 77,77 77,77 77,77 77,77 78,77 77,77 77,77 77,77 77,77 77,77 77,77 77,77 77,77 78,78 78,78 78,78 79,78 78,78 78,78 78,78 78,78 79,78 79,78 79,78 79,78 79,78 78,78 78,78 78,78 78,78 78,78 78,78 79,78 78,78 78,78 78,78 78,78 79,78 79,78 78,78 78,78 78,78 79,78 78,78 78,78 78,78 78,78 78,78 80,79 79,79 79,79 79,79 79,79 80,79 80,79 80,79 80,79 80,79 79,79 79,79 79,79 79,79 79,79 79,79 80,79 79,79 79,79 79,79 80,79 79,79 79,79 79,79 79,79 79,79 80,79 79,79 79,79 79,79 79,79 79,79 80,79 79,79 79,79 80,80 81,80 80,80 80,80 80,80 80,80 81,80 80,80 80,80 80,80 80,80 80,80 80,80 81,80 80,80 80,80 80,80 81,80 80,80 80,80 81,80 81,80 80,80 80,80 80,80 80,80 80,80 80,80 80,80 81,80 80,80 80,80 80,80 81,80 80,80 81,81 82,81 82,81 82,81 81,81 81,81 81,81 81,81 81,81 81,81 82,81 81,81 81,81 81,81 81,81 82,81 81,81 82,81 82,81 81,81 81,81 81,81 81,81 81,81 81,81 81,81 81,81 81,81 81,81 81,81 81,81 82,81 81,81 81,81 81,81 82,82 82,82 82,82 82,82 82,82 82,82 82,82 82,82 82,82 82,82 82,82 83,82 82,82 82,82 82,82 82,82 83,82 82,82 82,82 82,82 82,82 82,82 82,82 83,82 82,82 82,82 82,82 82,82 83,82 83,82 83,82 83,82 83,82 82,82 82,82 83,83 83,83 83,83 83,83 84,83 83,83 83,83 83,83 83,83 84,83 83,83 83,83 83,83 83,83 83,83 83,83 83,83 83,83 83,83 83,83 83,83 83,83 83,83 83,83 84,83 83,83 83,83 83,83 83,83 83,83 83,83 83,83 83,83 83,83 83,83 84,84 85,84 84,84 84,84 84,84 84,84 85,84 85,84 84,84 85,84 84,84 85,84 84,84 84,84 84,84 84,84 84,84 85,84 84,84 84,84 84,84 84,84 85,84 85,84 84,84 84,84 85,84 84,84 84,84 84,84 84,84 84,84 84,84 85,84 84,84 85,85 85,85 85,85 86,85 86,85 86,85 86,85 85,85 86,85 85,85 85,85 85,85 85,85 85,85 86,85 85,85 85,85 85,85 85,85 86,85 86,85 86,85 86,85 86,85 85,85 85,85 85,85 85,85 85,85 85,85 86,85 85,85 85,85 85,85 86,85 86,86 86,86 86,86 86,86 86,86 87,86 86,86 86,86 86,86 86,86 86,86 87,86 86,86 86,86 86,86 87,86 86,86 86,86 86,86 86,86 87,86 86,86 86,86 86,86 86,86 86,86 86,86 87,86 86,86 86,86 86,86 87,86 86,86 86,86 87,86 88,87 87,87 87,87 87,87 87,87 87,87 87,87 87,87 88,87 87,87 87,87 87,87 88,87 87,87 87,87 88,87 88,87 88,87 87,87 87,87 87,87 87,87 87,87 87,87 88,87 87,87 87,87 87,87 87,87 88,87 87,87 87,87 87,87 87,87 87,87 88,88 88,88 88,88 88,88 88,88 88,88 88,88 88,88 88,88 89,88 88,88 88,88 88,88 88,88 89,88 88,88 88,88 88,88 88,88 88,88 88,88 89,88 88,88 88,88 88,88 88,88 89,88 89,88 89,88 89,88 89,88 88,88 88,88 88,88 88,88 89,89 89,89 90,89 89,89 89,89 89,89 89,89 90,89 90,89 90,89 90,89 89,89 89,89 89,89 89,89 89,89 89,89 89,89 90,89 89,89 89,89 89,89 89,89 90,89 90,89 90,89 89,89 89,89 89,89 89,89 89,89 89,89 89,89 89,89 90,89 90,90 90,90 90,90 90,90 91,90 91,90 91,90 91,90 90,90 90,90 90,90 90,90 90,90 90,90 90,90 91,90 90,90 90,90 90,90 90,90 91,90 91,90 91,90 90,90 91,90 91,90 90,90 90,90 90,90 90,90 90,90 90,90 90,90 90,90 90,90 91,91 92,91 91,91 92,91 92,91 92,91 92,91 91,91 91,91 91,91 91,91 91,91 92,91 91,91 91,91 91,91 91,91 92,91 91,91 91,91 91,91 91,91 91,91 91,91 91,91 91,91 91,91 91,91 91,91 91,91 91,91 91,91 91,91 92,91 92,91 92,92 92,92 93,92 92,92 92,92 92,92 92,92 92,92 92,92 93,92 92,92 92,92 92,92 92,92 93,92 93,92 92,92 92,92 92,92 92,92 92,92 92,92 92,92 92,92 92,92 93,92 92,92 92,92 92,92 93,92 92,92 92,92 92,92 92,92 92,92 94,93 93,93 93,93 93,93 93,93 93,93 94,93 93,93 93,93 93,93 93,93 94,93 93,93 93,93 93,93 93,93 93,93 93,93 93,93 93,93 93,93 93,93 93,93 93,93 93,93 93,93 93,93 94,93 94,93 94,93 93,93 94,93 94,93 93,93 93,93 94,94 94,94 94,94 95,94 94,94 94,94 94,94 95,94 94,94 94,94 95,94 95,94 95,94 94,94 94,94 94,94 94,94 94,94 94,94 95,94 94,94 94,94 94,94 94,94 95,94 95,94 94,94 94,94 94,94 95,94 94,94 94,94 94,94 94,94 94,94 96,95 95,95 95,95 95,95 95,95 96,95 96,95 96,95 95,95 95,95 95,95 95,95 95,95 95,95 95,95 95,95 96,95 95,95 95,95 95,95 95,95 96,95 96,95 96,95 95,95 96,95 96,95 95,95 95,95 95,95 95,95 95,95 96,95 95,95 95,95 96,96 96,96 97,96 96,96 96,96 96,96 96,96 96,96 96,96 96,96 96,96 96,96 96,96 96,96 96,96 96,96 96,96 97,96 96,96 96,96 96,96 96,96 97,96 96,96 96,96 96,96 96,96 96,96 96,96 97,96 96,96 96,96 96,96 96,96 97,96 98,97 97,97 97,97 97,97 97,97 97,97 97,97 97,97 97,97 97,97 98,97 97,97 97,97 97,97 97,97 98,97 98,97 98,97 97,97 98,97 97,97 97,97 97,97 97,97 97,97 97,97 98,97 97,97 97,97 97,97 97,97 98,97 97,97 97,97 97,97 98,98 98,98 98,98 98,98 98,98 98,98 98,98 98,98 98,98 98,98 98,98 98,98 99,98 99,98 99,98 98,98 98,98 98,98 98,98 98,98 98,98 98,98 98,98 99,98 98,98 98,98 98,98 99,98 98,98 98,98 98,98 98,98 98,98 99,98 98,98 99,99 99,99 99,99 99,99 100,99 99,99 99,99 99,99 99,99 100,99 100,99 100,99 99,99 100,99 99,99 99,99 99,99 99,99 99,99 99,99 100,99 99,99 99,99 99,99 100,99 99,99 99,99 99,99 99,99 99,99 99,99 99,99 99,99 99,99 99,99 100,100 101,100 100,100 100,100 100,100 100,100 101,100 101,100 100,100 101,100 100,100 101,100 100,100 100,100 100,100 100,100 100,100 101,100 100,100 100,100 100,100 100,100 101,100 101,100 101,100 101,100 100,100 101,100 100,100 100,100 100,100 100,100 100,100 101,100 100,100 101,101 101,101 101,101 102,101 102,101 102,101 102,101 101,101 102,101 101,101 101,101 101,101 101,101 101,101 102,101 101,101 101,101 101,101 101,101 102,101 102,101 102,101 102,101 102,101 101,101 101,101 101,101 101,101 101,101 101,101 102,101 101,101 101,101 101,101 101,101 103,102 102,102 103,102 103,102 102,102 102,102 102,102 102,102 102,102 102,102 102,102 102,102 102,102 102,102 102,102 102,102 103,102 102,102 102,102 102,102 102,102 102,102 102,102 102,102 102,102 102,102 102,102 102,102 102,102 102,102 102,102 103,102 102,102 102,102 102,102 103,103 104,103 103,103 103,103 103,103 103,103 103,103 103,103 104,103 103,103 103,103 103,103 103,103 104,103 104,103 103,103 103,103 103,103 103,103 103,103 103,103 103,103 103,103 103,103 104,103 103,103 103,103 103,103 103,103 104,103 104,103 104,103 103,103 104,103 103,103 104,104 104,104 104,104 104,104 104,104 105,104 104,104 104,104 104,104 104,104 105,104 104,104 104,104 104,104 104,104 104,104 104,104 104,104 104,104 104,104 104,104 104,104 104,104 104,104 104,104 104,104 105,104 105,104 105,104 105,104 104,104 105,104 104,104 104,104 104,104 105,105 105,105 106,105 105,105 105,105 105,105 105,105 106,105 106,105 105,105 106,105 105,105 106,105 105,105 105,105 105,105 105,105 105,105 106,105 105,105 105,105 105,105 105,105 106,105 106,105 105,105 106,105 106,105 105,105 105,105 105,105 105,105 105,105 105,105 106,105 106,106 106,106 106,106 106,106 107,106 107,106 107,106 107,106 106,106 107,106 106,106 106,106 106,106 106,106 106,106 107,106 106,106 106,106 106,106 106,106 107,106 107,106 107,106 107,106 107,106 106,106 106,106 106,106 106,106 106,106 106,106 107,106 106,106 106,106 106,106 107,107 108,107 107,107 108,107 108,107 107,107 107,107 107,107 107,107 107,107 107,107 107,107 107,107 107,107 107,107 107,107 107,107 108,107 107,107 107,107 107,107 107,107 107,107 107,107 107,107 107,107 107,107 107,107 107,107 107,107 107,107 107,107 107,107 107,107 108,107 109,108 108,108 109,108 108,108 108,108 108,108 108,108 108,108 108,108 109,108 108,108 108,108 108,108 108,108 109,108 109,108 108,108 108,108 108,108 108,108 108,108 108,108 108,108 108,108 108,108 109,108 108,108 108,108 108,108 108,108 109,108 109,108 109,108 108,108 109,108 109,109 109,109 109,109 109,109 109,109 109,109 110,109 109,109 109,109 109,109 109,109 110,109 109,109 109,109 109,109 109,109 109,109 109,109 109,109 109,109 109,109 109,109 109,109 109,109 109,109 109,109 109,109 110,109 110,109 109,109 110,109 109,109 109,109 109,109 109,109 110,110 110,110 110,110 111,110 110,110 110,110 110,110 110,110 111,110 111,110 110,110 110,110 110,110 110,110 110,110 110,110 110,110 110,110 110,110 111,110 110,110 110,110 110,110 110,110 111,110 111,110 111,110 110,110 110,110 111,110 110,110 110,110 110,110 110,110 110,110 112,111 111,111 111,111 111,111 111,111 112,111 111,111 111,111 111,111 111,111 111,111 111,111 111,111 111,111 111,111 111,111 111,111 111,111 111,111 111,111 111,111 112,111 112,111 111,111 111,111 112,111 111,111 111,111 111,111 111,111 111,111 111,111 112,111 111,111 111,111 112,112 112,112 113,112 113,112 112,112 112,112 112,112 112,112 112,112 112,112 112,112 112,112 112,112 113,112 112,112 112,112 112,112 112,112 113,112 113,112 113,112 113,112 112,112 112,112 112,112 112,112 112,112 112,112 112,112 113,112 112,112 112,112 112,112 112,112 113,112 112,112 113,113 113,113 113,113 113,113 113,113 113,113 113,113 113,113 113,113 113,113 113,113 113,113 113,113 113,113 113,113 114,113 113,113 113,113 113,113 114,113 113,113 113,113 113,113 113,113 113,113 114,113 113,113 113,113 113,113 113,113 114,113 114,113 114,113 114,113 114,113 114,114 114,114 114,114 114,114 114,114 114,114 115,114 114,114 114,114 114,114 114,114 115,114 115,114 114,114 114,114 115,114 115,114 114,114 114,114 114,114 114,114 114,114 115,114 114,114 114,114 114,114 114,114 115,114 114,114 114,114 114,114 114,114 114,114 114,114 114,114 115,115 115,115 115,115 115,115 115,115 115,115 115,115 115,115 116,115 116,115 116,115 115,115 116,115 116,115 115,115 115,115 115,115 115,115 115,115 116,115 115,115 115,115 115,115 116,115 115,115 115,115 116,115 116,115 116,115 115,115 115,115 115,115 115,115 115,115 115,115 117,116 116,116 116,116 116,116 116,116 117,116 117,116 116,116 116,116 116,116 117,116 116,116 116,116 116,116 116,116 116,116 117,116 116,116 116,116 116,116 116,116 117,116 117,116 117,116 116,116 116,116 116,116 116,116 116,116 116,116 116,116 116,116 117,116 116,116 117,117 117,117 117,117 118,117 118,117 118,117 118,117 117,117 117,117 117,117 117,117 117,117 117,117 117,117 118,117 117,117 117,117 117,117 117,117 118,117 118,117 118,117 118,117 118,117 117,117 117,117 117,117 117,117 117,117 117,117 118,117 117,117 117,117 117,117 117,117 119,118 119,118 119,118 118,118 118,118 119,118 118,118 118,118 118,118 118,118 118,118 119,118 118,118 118,118 118,118 118,118 119,118 118,118 118,118 118,118 118,118 118,118 118,118 118,118 118,118 118,118 118,118 118,118 118,118 118,118 118,118 118,118 119,118 119,118 118,118 119,119 119,119 120,119 119,119 119,119 119,119 119,119 119,119 120,119 119,119 119,119 119,119 120,119 119,119 119,119 120,119 119,119 120,119 120,119 119,119 119,119 119,119 119,119 119,119 120,119 119,119 119,119 119,119 120,119 119,119 119,119 119,119 119,119 120,119 119,119 120,120 120,120 120,120 120,120 120,120 121,120 120,120 120,120 120,120 121,120 120,120 120,120 121,120 121,120 120,120 120,120 120,120 120,120 120,120 120,120 120,120 121,120 120,120 120,120 120,120 120,120 121,120 120,120 120,120 120,120 120,120 120,120 120,120 120,120 120,120 121,121 121,121 121,121 121,121 121,121 121,121 121,121 122,121 122,121 121,121 122,121 121,121 121,121 121,121 121,121 121,121 121,121 121,121 122,121 121,121 121,121 121,121 122,121 121,121 121,121 121,121 121,121 121,121 121,121 121,121 121,121 121,121 121,121 121,121 122,121 122,122 122,122 122,122 123,122 122,122 122,122 122,122 122,122 123,122 123,122 122,122 122,122 122,122 122,122 122,122 123,122 122,122 122,122 122,122 122,122 123,122 123,122 122,122 122,122 123,122 123,122 122,122 122,122 122,122 122,122 122,122 123,122 122,122 122,122 122,122 123,123 124,123 124,123 124,123 123,123 123,123 123,123 123,123 123,123 123,123 123,123 123,123 124,123 123,123 123,123 123,123 123,123 124,123 124,123 124,123 124,123 123,123 123,123 123,123 123,123 123,123 123,123 123,123 124,123 123,123 123,123 123,123 123,123 124,123 123,123 125,124 125,124 125,124 124,124 124,124 124,124 124,124 124,124 124,124 124,124 124,124 124,124 " />
</svg>