<svg height="210" width="500">
  <polygon style="stroke:rgb(255,0,0);stroke-width:2" col="256" points="1,10 1,10 0,10 1,10 0,10 0,10 0,10 0,10 1,10 0,10 0,10 1,10 1,10 1,10 0,10 1,10 1,10 1,10 0,10 1,10 0,10 0,10 0,10 0,10 1,10 0,10 1,10 1,10 1,10 1,10 1,10 0,10 1,10 1,10 0,10 1,10 0,10 0,10 0,10 0,10 1,10 0,10 1,10 1,10 0,10 0,10 1,10 0,10 1,10 1,10 0,10 1,10 0,10 0,10 0,10 1,10 1,10 0,10 0,10 0,10 1,10 0,10 1,10 1,10 1,10 1,10 0,10 1,10 0,10 0,10 2,11 2,11 3,11 2,11 3,11 3,11 3,11 2,11 2,11 3,11 2,11 2,11 3,11 2,11 2,11 2,11 2,11 2,11 3,11 3,11 2,11 3,11 2,11 2,11 2,11 2,11 3,11 2,11 3,11 3,11 2,11 2,11 3,11 2,11 3,11 3,11 2,11 3,11 2,11 2,11 2,11 2,11 3,11 2,11 3,11 3,11 2,11 3,11 2,11 3,11 3,11 3,11 2,11 3,11 2,11 2,11 2,11 3,11 3,11 2,11 2,11 2,11 2,11 3,11 3,11 3,11 3,11 3,11 2,11 3,11 4,12 4,12 4,12 4,12 5,12 4,12 5,12 5,12 5,12 5,12 4,12 5,12 5,12 5,12 4,12 5,12 4,12 4,12 4,12 5,12 5,12 4,12 4,12 4,12 5,12 4,12 5,12 5,12 5,12 5,12 4,12 5,12 4,12 4,12 4,12 4,12 5,12 4,12 5,12 5,12 5,12 4,12 4,12 5,12 4,12 4,12 5,12 4,12 4,12 4,12 4,12 4,12 5,12 5,12 4,12 5,12 4,12 4,12 4,12 4,12 5,12 4,12 5,12 5,12 5,12 4,12 5,12 4,12 5,12 5,12 6,13 7,13 6,13 6,13 6,13 6,13 7,13 6,13 7,13 7,13 6,13 6,13 6,13 6,13 7,13 7,13 6,13 7,13 6,13 6,13 6,13 6,13 7,13 6,13 7,13 7,13 7,13 6,13 6,13 7,13 7,13 7,13 6,13 7,13 6,13 6,13 6,13 7,13 7,13 6,13 6,13 6,13 6,13 7,13 6,13 6,13 7,13 7,13 7,13 7,13 7,13 7,13 7,13 7,13 7,13 7,13 7,13 7,13 7,13 7,13 7,13 7,13 7,13 7,13 7,13 7,13 7,13 7,13 7,13 7,13 8,14 8,14 8,14 8,14 8,14 8,14 8,14 8,14 8,14 8,14 8,14 8,14 8,14 8,14 8,14 8,14 8,14 8,14 8,14 8,14 8,14 8,14 8,14 8,14 8,14 8,14 8,14 8,14 8,14 8,14 8,14 8,14 8,14 8,14 8,14 9,14 9,14 9,14 9,14 9,14 9,14 9,14 9,14 9,14 9,14 9,14 9,14 9,14 9,14 9,14 9,14 9,14 9,14 9,14 9,14 9,14 9,14 9,14 9,14 9,14 9,14 9,14 9,14 9,14 9,14 9,14 9,14 9,14 9,14 9,14 10,15 10,15 10,15 10,15 10,15 10,15 10,15 10,15 10,15 10,15 10,15 10,15 10,15 10,15 10,15 10,15 10,15 10,15 10,15 10,15 10,15 10,15 10,15 10,15 10,15 10,15 10,15 10,15 10,15 10,15 10,15 10,15 10,15 10,15 10,15 11,15 11,15 11,15 11,15 11,15 11,15 11,15 11,15 11,15 11,15 11,15 11,15 11,15 11,15 11,15 11,15 11,15 11,15 11,15 11,15 11,15 11,15 11,15 11,15 11,15 11,15 11,15 11,15 11,15 11,15 11,15 11,15 11,15 11,15 11,15 12,16 12,16 12,16 12,16 12,16 12,16 12,16 12,16 12,16 12,16 12,16 12,16 12,16 12,16 12,16 12,16 12,16 12,16 12,16 12,16 12,16 12,16 12,16 12,16 12,16 12,16 12,16 12,16 12,16 12,16 12,16 12,16 12,16 12,16 12,16 13,16 13,16 13,16 13,16 13,16 13,16 13,16 13,16 13,16 13,16 13,16 13,16 13,16 13,16 13,16 13,16 13,16 13,16 13,16 13,16 13,16 13,16 13,16 13,16 13,16 13,16 13,16 13,16 13,16 13,16 13,16 13,16 13,16 13,16 13,16 14,17 14,17 14,17 14,17 14,17 14,17 14,17 14,17 14,17 14,17 14,17 14,17 14,17 14,17 14,17 14,17 14,17 14,17 14,17 14,17 14,17 14,17 14,17 14,17 14,17 14,17 14,17 14,17 14,17 14,17 14,17 14,17 14,17 14,17 14,17 15,17 15,17 15,17 15,17 15,17 15,17 15,17 15,17 15,17 15,17 15,17 15,17 15,17 15,17 15,17 15,17 15,17 15,17 15,17 15,17 15,17 15,17 15,17 15,17 15,17 15,17 15,17 15,17 15,17 15,17 15,17 15,17 15,17 15,17 15,17 16,18 16,18 16,18 16,18 16,18 16,18 16,18 16,18 16,18 16,18 16,18 16,18 16,18 16,18 16,18 16,18 16,18 16,18 16,18 16,18 16,18 16,18 16,18 16,18 16,18 16,18 16,18 16,18 16,18 16,18 16,18 16,18 16,18 16,18 16,18 17,18 17,18 17,18 17,18 17,18 17,18 17,18 17,18 17,18 17,18 17,18 17,18 17,18 17,18 17,18 17,18 17,18 17,18 17,18 17,18 17,18 17,18 17,18 17,18 17,18 17,18 17,18 17,18 17,18 17,18 17,18 17,18 17,18 17,18 17,18 18,19 18,19 18,19 18,19 18,19 18,19 18,19 18,19 18,19 18,19 18,19 18,19 18,19 18,19 18,19 18,19 18,19 18,19 18,19 18,19 18,19 18,19 18,19 18,19 18,19 18,19 18,19 18,19 18,19 18,19 18,19 18,19 18,19 18,19 18,19 19,19 19,19 19,19 19,19 19,19 19,19 19,19 19,19 19,19 19,19 19,19 19,19 19,19 19,19 19,19 19,19 19,19 19,19 19,19 19,19 19,19 19,19 19,19 19,19 19,19 19,19 19,19 19,19 19,19 19,19 19,19 19,19 19,19 19,19 19,19 20,20" />
  <polygon style="stroke:rgb(255,0,0);stroke-width:2" points="21,20 21,19 20,19 21,19 20,19 20,19 20,19 20,19 21,19 20,19 20,19 21,19 21,19 21,19 20,19 21,19 21,19 21,19 20,19 21,19 20,19 20,19 20,19 20,19 21,19 20,19 21,19 21,19 21,19 21,19 21,19 20,19 21,19 21,19 20,19 21,19 20,19 20,19 20,19 20,19 21,19 20,19 21,19 21,19 20,19 20,19 21,19 20,19 21,19 21,19 20,19 21,19 20,19 20,19 20,19 21,19 21,19 20,19 20,19 20,19 21,19 20,19 21,19 21,19 21,19 21,19 20,19 21,19 20,19 20,19 20,19 20,19 21,19 20,19 21,19 21,19 21,19 20,19 20,19 21,19 20,19 20,19 21,19 20,19 20,19 20,19 20,19 20,19 21,19 21,19 20,19 21,19 20,19 20,19 20,19 20,19 21,19 20,19 21,19 21,19 20,19 20,19 21,19 20,19 21,19 21,19 20,19 21,19 20,19 20,19 20,19 20,19 21,19 20,19 21,19 21,19 20,19 21,19 20,19 21,19 21,19 21,19 20,19 21,19 20,19 20,19 20,19 21,19 21,19 20,19 20,19 20,19 20,19 21,19 21,19 21,19 21,19 21,19 20,19 21,19 22,19 22,18 22,18 22,18 23,18 22,18 23,18 23,18 23,18 23,18 22,18 23,18 23,18 23,18 22,18 23,18 22,18 22,18 22,18 23,18 23,18 22,18 22,18 22,18 23,18 22,18 23,18 23,18 23,18 23,18 22,18 23,18 22,18 22,18 22,18 22,18 23,18 22,18 23,18 23,18 23,18 22,18 22,18 23,18 22,18 22,18 23,18 22,18 22,18 22,18 22,18 22,18 23,18 23,18 22,18 23,18 22,18 22,18 22,18 22,18 23,18 22,18 23,18 23,18 23,18 22,18 23,18 22,18 23,18 23,18 22,18 23,18 22,18 22,18 22,18 22,18 23,18 22,18 23,18 23,18 22,18 22,18 22,18 22,18 23,18 23,18 22,18 23,18 22,18 22,18 22,18 22,18 23,18 22,18 23,18 23,18 23,18 22,18 22,18 23,18 23,18 23,18 22,18 23,18 22,18 22,18 22,18 23,18 23,18 22,18 22,18 22,18 22,18 23,18 22,18 22,18 23,18 23,18 23,18 23,18 23,18 23,18 23,18 23,18 23,18 23,18 23,18 23,18 23,18 23,18 23,18 23,18 23,18 23,18 23,18 23,18 23,18 23,18 23,18 23,18 24,18 24,17 24,17 24,17 24,17 24,17 24,17 24,17 24,17 24,17 24,17 24,17 24,17 24,17 24,17 24,17 24,17 24,17 24,17 24,17 24,17 24,17 24,17 24,17 24,17 24,17 24,17 24,17 24,17 24,17 24,17 24,17 24,17 24,17 24,17 24,17 24,17 24,17 24,17 24,17 24,17 24,17 24,17 24,17 24,17 24,17 24,17 24,17 24,17 24,17 24,17 24,17 24,17 24,17 24,17 24,17 24,17 24,17 24,17 24,17 24,17 24,17 24,17 24,17 24,17 24,17 24,17 24,17 24,17 24,17 25,17 25,17 25,17 25,17 25,17 25,17 25,17 25,17 25,17 25,17 25,17 25,17 25,17 25,17 25,17 25,17 25,17 25,17 25,17 25,17 25,17 25,17 25,17 25,17 25,17 25,17 25,17 25,17 25,17 25,17 25,17 25,17 25,17 25,17 25,17 25,17 25,17 25,17 25,17 25,17 25,17 25,17 25,17 25,17 25,17 25,17 25,17 25,17 25,17 25,17 25,17 25,17 25,17 25,17 25,17 25,17 25,17 25,17 25,17 25,17 25,17 25,17 25,17 25,17 25,17 25,17 25,17 25,17 25,17 25,17 26,17 26,16 26,16 26,16 26,16 26,16 26,16 26,16 26,16 26,16 26,16 26,16 26,16 26,16 26,16 26,16 26,16 26,16 26,16 26,16 26,16 26,16 26,16 26,16 26,16 26,16 26,16 26,16 26,16 26,16 26,16 26,16 26,16 26,16 26,16 26,16 26,16 26,16 26,16 26,16 26,16 26,16 26,16 26,16 26,16 26,16 26,16 26,16 26,16 26,16 26,16 26,16 26,16 26,16 26,16 26,16 26,16 26,16 26,16 26,16 26,16 26,16 26,16 26,16 26,16 26,16 26,16 26,16 26,16 26,16 27,16 27,16 27,16 27,16 27,16 27,16 27,16 27,16 27,16 27,16 27,16 27,16 27,16 27,16 27,16 27,16 27,16 27,16 27,16 27,16 27,16 27,16 27,16 27,16 27,16 27,16 27,16 27,16 27,16 27,16 27,16 27,16 27,16 27,16 27,16 27,16 27,16 27,16 27,16 27,16 27,16 27,16 27,16 27,16 27,16 27,16 27,16 27,16 27,16 27,16 27,16 27,16 27,16 27,16 27,16 27,16 27,16 27,16 27,16 27,16 27,16 27,16 27,16 27,16 27,16 27,16 27,16 27,16 27,16 27,16 28,16 28,15 28,15 28,15 28,15 28,15 28,15 28,15 28,15 28,15 28,15 28,15 28,15 28,15 28,15 28,15 28,15 28,15 28,15 28,15 28,15 28,15 28,15 28,15 28,15 28,15 28,15 28,15 28,15 28,15 28,15 28,15 28,15 28,15 28,15 28,15 28,15 28,15 28,15 28,15 28,15 28,15 28,15 28,15 28,15 28,15 28,15 28,15 28,15 28,15 28,15 28,15 28,15 28,15 28,15 28,15 28,15 28,15 28,15 28,15 28,15 28,15 28,15 28,15 28,15 28,15 28,15 28,15 28,15 28,15 29,15 29,15 29,15 29,15 29,15 29,15 29,15 29,15 29,15 29,15 29,15 29,15 29,15 29,15 29,15 29,15 29,15 29,15 29,15 29,15 29,15 29,15 29,15 29,15 29,15 29,15 29,15 29,15 29,15 29,15 29,15 29,15 29,15 29,15 29,15 29,15 29,15 29,15 29,15 29,15 29,15 29,15 29,15 29,15 29,15 29,15 29,15 29,15 29,15 29,15 29,15 29,15 29,15 29,15 29,15 29,15 29,15 29,15 29,15 29,15 29,15 29,15 29,15 29,15 29,15 29,15 29,15 29,15 29,15 29,15 30,15 30,14 30,14 30,14 30,14 30,14 30,14 30,14 30,14 30,14 30,14 30,14 30,14 30,14 30,14 30,14 30,14 30,14 30,14 30,14 30,14 30,14 30,14 30,14 30,14 30,14 30,14 30,14 30,14 30,14 30,14 30,14 30,14 30,14 30,14 30,14 30,14 30,14 30,14 30,14 30,14 30,14 30,14 30,14 30,14 30,14 30,14 30,14 30,14 30,14 30,14 30,14 30,14 30,14 30,14 30,14 30,14 30,14 30,14 30,14 30,14 30,14 30,14 30,14 30,14 30,14 30,14 30,14 30,14 30,14 31,14 31,14 31,14 31,14 31,14 31,14 31,14 31,14 31,14 31,14 31,14 31,14 31,14 31,14 31,14 31,14 31,14 31,14 31,14 31,14 31,14 31,14 31,14 31,14 31,14 31,14 31,14 31,14 31,14 31,14 31,14 31,14 31,14 31,14 31,14 31,14 31,14 31,14 31,14 31,14 31,14 31,14 31,14 31,14 31,14 31,14 31,14 31,14 31,14 31,14 31,14 31,14 31,14 31,14 31,14 31,14 31,14 31,14 31,14 31,14 31,14 31,14 31,14 31,14 31,14 31,14 31,14 31,14 31,14 31,14 32,14 32,13 32,13 32,13 32,13 32,13 32,13 32,13 32,13 32,13 32,13 32,13 32,13 32,13 32,13 32,13 32,13 32,13 32,13 32,13 32,13 32,13 32,13 32,13 32,13 32,13 32,13 32,13 32,13 32,13 32,13 32,13 32,13 32,13 32,13 32,13 32,13 32,13 32,13 32,13 32,13 32,13 32,13 32,13 32,13 32,13 32,13 32,13 32,13 32,13 32,13 32,13 32,13 32,13 32,13 32,13 32,13 32,13 32,13 32,13 32,13 32,13 32,13 32,13 32,13 32,13 32,13 32,13 32,13 32,13 33,13 33,13 33,13 33,13 33,13 33,13 33,13 33,13 33,13 33,13 33,13 33,13 33,13 33,13 33,13 33,13 33,13 33,13 33,13 33,13 33,13 33,13 33,13 33,13 33,13 33,13 33,13 33,13 33,13 33,13 33,13 33,13 33,13 33,13 33,13 33,13 33,13 33,13 33,13 33,13 33,13 33,13 33,13 33,13 33,13 33,13 33,13 33,13 33,13 33,13 33,13 33,13 33,13 33,13 33,13 33,13 33,13 33,13 33,13 33,13 33,13 33,13 33,13 33,13 33,13 33,13 33,13 33,13 33,13 33,13 34,13 34,12 34,12 34,12 34,12 34,12 34,12 34,12 34,12 34,12 34,12 34,12 34,12 34,12 34,12 34,12 34,12 34,12 34,12 34,12 34,12 34,12 34,12 34,12 34,12 34,12 34,12 34,12 34,12 34,12 34,12 34,12 34,12 34,12 34,12 34,12 34,12 34,12 34,12 34,12 34,12 34,12 34,12 34,12 34,12 34,12 34,12 34,12 34,12 34,12 34,12 34,12 34,12 34,12 34,12 34,12 34,12 34,12 34,12 34,12 34,12 34,12 34,12 34,12 34,12 34,12 34,12 34,12 34,12 34,12 35,12 35,12 35,12 35,12 35,12 35,12 35,12 35,12 35,12 35,12 35,12 35,12 35,12 35,12 35,12 35,12 35,12 35,12 35,12 35,12 35,12 35,12 35,12 35,12 35,12 35,12 35,12 35,12 35,12 35,12 35,12 35,12 35,12 35,12 35,12 35,12 35,12 35,12 35,12 35,12 35,12 35,12 35,12 35,12 35,12 35,12 35,12 35,12 35,12 35,12 35,12 35,12 35,12 35,12 35,12 35,12 35,12 35,12 35,12 35,12 35,12 35,12 35,12 35,12 35,12 35,12 35,12 35,12 35,12 35,12 36,12 36,11 36,11 36,11 36,11 36,11 36,11 36,11 36,11 36,11 36,11 36,11 36,11 36,11 36,11 36,11 36,11 36,11 36,11 36,11 36,11 36,11 36,11 36,11 36,11 36,11 36,11 36,11 36,11 36,11 36,11 36,11 36,11 36,11 36,11 36,11 36,11 36,11 36,11 36,11 36,11 36,11 36,11 36,11 36,11 36,11 36,11 36,11 36,11 36,11 36,11 36,11 36,11 36,11 36,11 36,11 36,11 36,11 36,11 36,11 36,11 36,11 36,11 36,11 36,11 36,11 36,11 36,11 36,11 36,11 37,11 37,11 37,11 37,11 37,11 37,11 37,11 37,11 37,11 37,11 37,11 37,11 37,11 37,11 37,11 37,11 37,11 37,11 37,11 37,11 37,11 37,11 37,11 37,11 37,11 37,11 37,11 37,11 37,11 37,11 37,11 37,11 37,11 37,11 37,11 37,11 37,11 37,11 37,11 37,11 37,11 37,11 37,11 37,11 37,11 37,11 37,11 37,11 37,11 37,11 37,11 37,11 37,11 37,11 37,11 37,11 37,11 37,11 37,11 37,11 37,11 37,11 37,11 37,11 37,11 37,11 37,11 37,11 37,11 37,11 38,11 38,10 38,10 38,10 38,10 38,10 38,10 38,10 38,10 38,10 38,10 38,10 38,10 38,10 38,10 38,10 38,10 38,10 38,10 38,10 38,10 38,10 38,10 38,10 38,10 38,10 38,10 38,10 38,10 38,10 38,10 38,10 38,10 38,10 38,10 38,10 38,10 38,10 38,10 38,10 38,10 38,10 38,10 38,10 38,10 38,10 38,10 38,10 38,10 38,10 38,10 38,10 38,10 38,10 38,10 38,10 38,10 38,10 38,10 38,10 38,10 38,10 38,10 38,10 38,10 38,10 38,10 38,10 38,10 38,10 39,10 39,10 39,10 39,10 39,10 39,10 39,10 39,10 39,10 39,10 39,10 39,10 39,10 39,10 39,10 39,10 39,10 39,10 39,10 39,10 39,10 39,10 39,10 39,10 39,10 39,10 39,10 39,10 39,10 39,10 39,10 39,10 39,10 39,10 39,10 39,10 39,10 39,10 39,10 39,10 39,10 39,10 39,10 39,10 39,10 39,10 39,10 39,10 39,10 39,10 39,10 39,10 39,10 39,10 39,10 39,10 39,10 39,10 39,10 39,10 39,10 39,10 39,10 39,10 39,10 39,10 39,10 39,10 39,10 39,10 40,10" />
  <polygon style="stroke:rgb(255,0,0);stroke-width:2" points="41,10 41,10 40,10 41,10 40,10 40,10 40,10 40,10 41,10 40,10 40,10 41,10 41,10 41,10 40,10 41,10 41,10 41,10 40,10 41,10 40,10 40,10 40,10 40,10 41,10 40,10 41,10 41,10 41,10 41,10 41,10 40,10 41,10 41,10 40,10 41,10 40,10 40,10 40,10 40,10 41,11 40,11 41,11 41,11 40,11 40,11 41,11 40,11 41,11 41,11 40,11 41,11 40,11 40,11 40,11 41,11 41,11 40,11 40,11 40,11 41,11 40,11 41,11 41,11 41,11 41,11 40,11 41,11 40,11 40,11 40,11 40,11 41,11 40,11 41,11 41,11 41,11 40,11 40,11 41,11 40,12 40,12 41,12 40,12 40,12 40,12 40,12 40,12 41,12 41,12 40,12 41,12 40,12 40,12 40,12 40,12 41,12 40,12 41,12 41,12 40,12 40,12 41,12 40,12 41,12 41,12 40,12 41,12 40,12 40,12 40,12 40,12 41,12 40,12 41,12 41,12 40,12 41,12 40,12 41,12 41,13 41,13 40,13 41,13 40,13 40,13 40,13 41,13 41,13 40,13 40,13 40,13 40,13 41,13 41,13 41,13 41,13 41,13 40,13 41,13 40,13 40,13 40,13 40,13 41,13 40,13 41,13 41,13 41,13 41,13 40,13 41,13 41,13 41,13 40,13 41,13 40,13 40,13 40,13 41,13 41,14 40,14 40,14 40,14 41,14 40,14 41,14 41,14 41,14 41,14 40,14 41,14 40,14 40,14 40,14 40,14 41,14 40,14 41,14 41,14 41,14 40,14 40,14 41,14 40,14 40,14 41,14 40,14 40,14 40,14 40,14 40,14 41,14 41,14 40,14 41,14 40,14 40,14 40,14 40,14 41,15 40,15 41,15 41,15 41,15 40,15 41,15 40,15 41,15 41,15 40,15 41,15 40,15 40,15 40,15 40,15 41,15 40,15 41,15 41,15 40,15 40,15 40,15 40,15 41,15 41,15 40,15 41,15 40,15 40,15 40,15 40,15 41,15 40,15 41,15 41,15 41,15 40,15 40,15 41,15 41,16 41,16 40,16 41,16 40,16 40,16 40,16 41,16 41,16 40,16 40,16 40,16 40,16 41,16 40,16 40,16 41,16 41,16 41,16 41,16 41,16 41,16 41,16 41,16 41,16 41,16 41,16 41,16 41,16 41,16 41,16 41,16 41,16 41,16 41,16 41,16 41,16 41,16 41,16 41,16 42,17 42,17 42,17 42,17 42,17 42,17 42,17 42,17 42,17 42,17 42,17 42,17 42,17 42,17 42,17 42,17 42,17 42,17 42,17 42,17 42,17 42,17 42,17 42,17 42,17 42,17 42,17 42,17 42,17 42,17 42,17 42,17 42,17 42,17 42,17 42,17 42,17 42,17 42,17 42,17 42,18 42,18 42,18 42,18 42,18 42,18 42,18 42,18 42,18 42,18 42,18 42,18 42,18 42,18 42,18 42,18 42,18 42,18 42,18 42,18 42,18 42,18 42,18 42,18 42,18 42,18 42,18 42,18 42,18 42,18 42,18 42,18 42,18 42,18 42,18 42,18 42,18 42,18 42,18 42,18 42,19 42,19 42,19 42,19 42,19 42,19 42,19 42,19 42,19 42,19 42,19 42,19 42,19 42,19 42,19 42,19 42,19 42,19 42,19 42,19 42,19 42,19 42,19 42,19 42,19 42,19 42,19 42,19 42,19 42,19 42,19 42,19 42,19 42,19 42,19 42,19 42,19 42,19 42,19 42,19 42,20 42,20 42,20 42,20 42,20 42,20 42,20 42,20 42,20 42,20 42,20 42,20 42,20 42,20 42,20 42,20 42,20 42,20 42,20 42,20 43,20 43,20 43,20 43,20 43,20 43,20 43,20 43,20 43,20 43,20 43,20 43,20 43,20 43,20 43,20 43,20 43,20 43,20 43,20 43,20 43,21 43,21 43,21 43,21 43,21 43,21 43,21 43,21 43,21 43,21 43,21 43,21 43,21 43,21 43,21 43,21 43,21 43,21 43,21 43,21 43,21 43,21 43,21 43,21 43,21 43,21 43,21 43,21 43,21 43,21 43,21 43,21 43,21 43,21 43,21 43,21 43,21 43,21 43,21 43,21 43,22 43,22 43,22 43,22 43,22 43,22 43,22 43,22 43,22 43,22 43,22 43,22 43,22 43,22 43,22 43,22 43,22 43,22 43,22 43,22 43,22 43,22 43,22 43,22 43,22 43,22 43,22 43,22 43,22 43,22 43,22 43,22 43,22 43,22 43,22 43,22 43,22 43,22 43,22 43,22 43,23 43,23 43,23 43,23 43,23 43,23 43,23 43,23 43,23 43,23 43,23 43,23 43,23 43,23 43,23 43,23 43,23 43,23 43,23 43,23 43,23 43,23 43,23 43,23 43,23 43,23 43,23 43,23 43,23 43,23 43,23 43,23 43,23 43,23 43,23 43,23 43,23 43,23 43,23 43,23 44,24 44,24 44,24 44,24 44,24 44,24 44,24 44,24 44,24 44,24 44,24 44,24 44,24 44,24 44,24 44,24 44,24 44,24 44,24 44,24 44,24 44,24 44,24 44,24 44,24 44,24 44,24 44,24 44,24 44,24 44,24 44,24 44,24 44,24 44,24 44,24 44,24 44,24 44,24 44,24 44,25 44,25 44,25 44,25 44,25 44,25 44,25 44,25 44,25 44,25 44,25 44,25 44,25 44,25 44,25 44,25 44,25 44,25 44,25 44,25 44,25 44,25 44,25 44,25 44,25 44,25 44,25 44,25 44,25 44,25 44,25 44,25 44,25 44,25 44,25 44,25 44,25 44,25 44,25 44,25 44,26 44,26 44,26 44,26 44,26 44,26 44,26 44,26 44,26 44,26 44,26 44,26 44,26 44,26 44,26 44,26 44,26 44,26 44,26 44,26 44,26 44,26 44,26 44,26 44,26 44,26 44,26 44,26 44,26 44,26 44,26 44,26 44,26 44,26 44,26 44,26 44,26 44,26 44,26 44,26 44,27 44,27 44,27 44,27 44,27 44,27 44,27 44,27 44,27 44,27 44,27 44,27 44,27 44,27 44,27 44,27 44,27 44,27 44,27 44,27 45,27 45,27 45,27 45,27 45,27 45,27 45,27 45,27 45,27 45,27 45,27 45,27 45,27 45,27 45,27 45,27 45,27 45,27 45,27 45,27 45,28 45,28 45,28 45,28 45,28 45,28 45,28 45,28 45,28 45,28 45,28 45,28 45,28 45,28 45,28 45,28 45,28 45,28 45,28 45,28 45,28 45,28 45,28 45,28 45,28 45,28 45,28 45,28 45,28 45,28 45,28 45,28 45,28 45,28 45,28 45,28 45,28 45,28 45,28 45,28 45,29 45,29 45,29 45,29 45,29 45,29 45,29 45,29 45,29 45,29 45,29 45,29 45,29 45,29 45,29 45,29 45,29 45,29 45,29 45,29 45,29 45,29 45,29 45,29 45,29 45,29 45,29 45,29 45,29 45,29 45,29 45,29 45,29 45,29 45,29 45,29 45,29 45,29 45,29 45,29 45,30 45,30 45,30 45,30 45,30 45,30 45,30 45,30 45,30 45,30 45,30 45,30 45,30 45,30 45,30 45,30 45,30 45,30 45,30 45,30 45,30 45,30 45,30 45,30 45,30 45,30 45,30 45,30 45,30 45,30 45,30 45,30 45,30 45,30 45,30 45,30 45,30 45,30 45,30 45,30 46,31 46,31 46,31 46,31 46,31 46,31 46,31 46,31 46,31 46,31 46,31 46,31 46,31 46,31 46,31 46,31 46,31 46,31 46,31 46,31 46,31 46,31 46,31 46,31 46,31 46,31 46,31 46,31 46,31 46,31 46,31 46,31 46,31 46,31 46,31 46,31 46,31 46,31 46,31 46,31 46,32 46,32 46,32 46,32 46,32 46,32 46,32 46,32 46,32 46,32 46,32 46,32 46,32 46,32 46,32 46,32 46,32 46,32 46,32 46,32 46,32 46,32 46,32 46,32 46,32 46,32 46,32 46,32 46,32 46,32 46,32 46,32 46,32 46,32 46,32 46,32 46,32 46,32 46,32 46,32 46,33 46,33 46,33 46,33 46,33 46,33 46,33 46,33 46,33 46,33 46,33 46,33 46,33 46,33 46,33 46,33 46,33 46,33 46,33 46,33 46,33 46,33 46,33 46,33 46,33 46,33 46,33 46,33 46,33 46,33 46,33 46,33 46,33 46,33 46,33 46,33 46,33 46,33 46,33 46,33 46,34 46,34 46,34 46,34 46,34 46,34 46,34 46,34 46,34 46,34 46,34 46,34 46,34 46,34 46,34 46,34 46,34 46,34 46,34 46,34 47,34 47,34 47,34 47,34 47,34 47,34 47,34 47,34 47,34 47,34 47,34 47,34 47,34 47,34 47,34 47,34 47,34 47,34 47,34 47,34 47,35 47,35 47,35 47,35 47,35 47,35 47,35 47,35 47,35 47,35 47,35 47,35 47,35 47,35 47,35 47,35 47,35 47,35 47,35 47,35 47,35 47,35 47,35 47,35 47,35 47,35 47,35 47,35 47,35 47,35 47,35 47,35 47,35 47,35 47,35 47,35 47,35 47,35 47,35 47,35 47,36 47,36 47,36 47,36 47,36 47,36 47,36 47,36 47,36 47,36 47,36 47,36 47,36 47,36 47,36 47,36 47,36 47,36 47,36 47,36 47,36 47,36 47,36 47,36 47,36 47,36 47,36 47,36 47,36 47,36 47,36 47,36 47,36 47,36 47,36 47,36 47,36 47,36 47,36 47,36 47,37 47,37 47,37 47,37 47,37 47,37 47,37 47,37 47,37 47,37 47,37 47,37 47,37 47,37 47,37 47,37 47,37 47,37 47,37 47,37 47,37 47,37 47,37 47,37 47,37 47,37 47,37 47,37 47,37 47,37 47,37 47,37 47,37 47,37 47,37 47,37 47,37 47,37 47,37 47,37 48,38 48,38 48,38 48,38 48,38 48,38 48,38 48,38 48,38 48,38 48,38 48,38 48,38 48,38 48,38 48,38 48,38 48,38 48,38 48,38 48,38 48,38 48,38 48,38 48,38 48,38 48,38 48,38 48,38 48,38 48,38 48,38 48,38 48,38 48,38 48,38 48,38 48,38 48,38 48,38 48,39 48,39 48,39 48,39 48,39 48,39 48,39 48,39 48,39 48,39 48,39 48,39 48,39 48,39 48,39 48,39 48,39 48,39 48,39 48,39 48,39 48,39 48,39 48,39 48,39 48,39 48,39 48,39 48,39 48,39 48,39 48,39 48,39 48,39 48,39 48,39 48,39 48,39 48,39 48,39 48,40 48,40 48,40 48,40 48,40 48,40 48,40 48,40 48,40 48,40 48,40 48,40 48,40 48,40 48,40 48,40 48,40 48,40 48,40 48,40 48,40 48,40 48,40 48,40 48,40 48,40 48,40 48,40 48,40 48,40 48,40 48,40 48,40 48,40 48,40 48,40 48,40 48,40 48,40 48,40 48,41 48,41 48,41 48,41 48,41 48,41 48,41 48,41 48,41 48,41 48,41 48,41 48,41 48,41 48,41 48,41 48,41 48,41 48,41 48,41 49,41 49,41 49,41 49,41 49,41 49,41 49,41 49,41 49,41 49,41 49,41 49,41 49,41 49,41 49,41 49,41 49,41 49,41 49,41 49,41 49,42 49,42 49,42 49,42 49,42 49,42 49,42 49,42 49,42 49,42 49,42 49,42 49,42 49,42 49,42 49,42 49,42 49,42 49,42 49,42 49,42 49,42 49,42 49,42 49,42 49,42 49,42 49,42 49,42 49,42 49,42 49,42 49,42 49,42 49,42 49,42 49,42 49,42 49,42 49,42 49,43 49,43 49,43 49,43 49,43 49,43 49,43 49,43 49,43 49,43 49,43 49,43 49,43 49,43 49,43 49,43 49,43 49,43 49,43 49,43 49,43 49,43 49,43 49,43 49,43 49,43 49,43 49,43 49,43 49,43 49,43 49,43 49,43 49,43 49,43 49,43 49,43 49,43 49,43 49,43 49,44 49,44 49,44 49,44 49,44 49,44 49,44 49,44 49,44 49,44 49,44 49,44 49,44 49,44 49,44 49,44 49,44 49,44 49,44 49,44 49,44 49,44 49,44 49,44 49,44 49,44 49,44 49,44 49,44 49,44 49,44 49,44 49,44 49,44 49,44 49,44 49,44 49,44 49,44 49,44 50,45 50,45 50,45 50,45 50,45 50,45 50,45 50,45 50,45 50,45 50,45 50,45 50,45 50,45 50,45 50,45 50,45 50,45 50,45 50,45 50,45 50,45 50,45 50,45 50,45 50,45 50,45 50,45 50,45 50,45 50,45 50,45 50,45 50,45 50,45 50,45 50,45 50,45 50,45 50,45 50,46 50,46 50,46 50,46 50,46 50,46 50,46 50,46 50,46 50,46 50,46 50,46 50,46 50,46 50,46 50,46 50,46 50,46 50,46 50,46 50,46 50,46 50,46 50,46 50,46 50,46 50,46 50,46 50,46 50,46 50,46 50,46 50,46 50,46 50,46 50,46 50,46 50,46 50,46 50,46 50,47 50,47 50,47 50,47 50,47 50,47 50,47 50,47 50,47 50,47 50,47 50,47 50,47 50,47 50,47 50,47 50,47 50,47 50,47 50,47 50,47 50,47 50,47 50,47 50,47 50,47 50,47 50,47 50,47 50,47 50,47 50,47 50,47 50,47 50,47 50,47 50,47 50,47 50,47 50,47 50,48 50,48 50,48 50,48 50,48 50,48 50,48 50,48 50,48 50,48 50,48 50,48 50,48 50,48 50,48 50,48 50,48 50,48 50,48 50,48 51,48 51,48 51,48 51,48 51,48 51,48 51,48 51,48 51,48 51,48 51,48 51,48 51,48 51,48 51,48 51,48 51,48 51,48 51,48 51,48 51,49 51,49 51,49 51,49 51,49 51,49 51,49 51,49 51,49 51,49 51,49 51,49 51,49 51,49 51,49 51,49 51,49 51,49 51,49 51,49 51,49 51,49 51,49 51,49 51,49 51,49 51,49 51,49 51,49 51,49 51,49 51,49 51,49 51,49 51,49 51,49 51,49 51,49 51,49 51,49 51,50 51,50 51,50 51,50 51,50 51,50 51,50 51,50 51,50 51,50 51,50 51,50 51,50 51,50 51,50 51,50 51,50 51,50 51,50 51,50 51,50 51,50 51,50 51,50 51,50 51,50 51,50 51,50 51,50 51,50 51,50 51,50 51,50 51,50 51,50 51,50 51,50 51,50 51,50 51,50 51,51 51,51 51,51 51,51 51,51 51,51 51,51 51,51 51,51 51,51 51,51 51,51 51,51 51,51 51,51 51,51 51,51 51,51 51,51 51,51 51,51 51,51 51,51 51,51 51,51 51,51 51,51 51,51 51,51 51,51 51,51 51,51 51,51 51,51 51,51 51,51 51,51 51,51 51,51 51,51 52,52 52,52 52,52 52,52 52,52 52,52 52,52 52,52 52,52 52,52 52,52 52,52 52,52 52,52 52,52 52,52 52,52 52,52 52,52 52,52 52,52 52,52 52,52 52,52 52,52 52,52 52,52 52,52 52,52 52,52 52,52 52,52 52,52 52,52 52,52 52,52 52,52 52,52 52,52 52,52 52,53 52,53 52,53 52,53 52,53 52,53 52,53 52,53 52,53 52,53 52,53 52,53 52,53 52,53 52,53 52,53 52,53 52,53 52,53 52,53 52,53 52,53 52,53 52,53 52,53 52,53 52,53 52,53 52,53 52,53 52,53 52,53 52,53 52,53 52,53 52,53 52,53 52,53 52,53 52,53 52,54 52,54 52,54 52,54 52,54 52,54 52,54 52,54 52,54 52,54 52,54 52,54 52,54 52,54 52,54 52,54 52,54 52,54 52,54 52,54 52,54 52,54 52,54 52,54 52,54 52,54 52,54 52,54 52,54 52,54 52,54 52,54 52,54 52,54 52,54 52,54 52,54 52,54 52,54 52,54 52,55 52,55 52,55 52,55 52,55 52,55 52,55 52,55 52,55 52,55 52,55 52,55 52,55 52,55 52,55 52,55 52,55 52,55 52,55 52,55 53,55 53,55 53,55 53,55 53,55 53,55 53,55 53,55 53,55 53,55 53,55 53,55 53,55 53,55 53,55 53,55 53,55 53,55 53,55 53,55 53,56 53,56 53,56 53,56 53,56 53,56 53,56 53,56 53,56 53,56 53,56 53,56 53,56 53,56 53,56 53,56 53,56 53,56 53,56 53,56 53,56 53,56 53,56 53,56 53,56 53,56 53,56 53,56 53,56 53,56 53,56 53,56 53,56 53,56 53,56 53,56 53,56 53,56 53,56 53,56 53,56 53,57 53,57 53,57 53,57 53,57 53,57 53,57 53,57 53,57 53,57 53,57 53,57 53,57 53,57 53,57 53,57 53,57 53,57 53,57 53,57 53,57 53,57 53,57 53,57 53,57 53,57 53,57 53,57 53,57 53,57 53,57 53,57 53,57 53,57 53,57 53,57 53,57 53,57 53,57 53,58 53,58 53,58 53,58 53,58 53,58 53,58 53,58 53,58 53,58 53,58 53,58 53,58 53,58 53,58 53,58 53,58 53,58 53,58 53,58 53,58 53,58 53,58 53,58 53,58 53,58 53,58 53,58 53,58 53,58 53,58 53,58 53,58 53,58 53,58 53,58 53,58 53,58 53,58 53,58 54,59 54,59 54,59 54,59 54,59 54,59 54,59 54,59 54,59 54,59 54,59 54,59 54,59 54,59 54,59 54,59 54,59 54,59 54,59 54,59 54,59 54,59 54,59 54,59 54,59 54,59 54,59 54,59 54,59 54,59 54,59 54,59 54,59 54,59 54,59 54,59 54,59 54,59 54,59 54,59 54,60 54,60 54,60 54,60 54,60 54,60 54,60 54,60 54,60 54,60 54,60 54,60 54,60 54,60 54,60 54,60 54,60 54,60 54,60 54,60 54,60 54,60 54,60 54,60 54,60 54,60 54,60 54,60 54,60 54,60 54,60 54,60 54,60 54,60 54,60 54,60 54,60 54,60 54,60 54,60 54,61 54,61 54,61 54,61 54,61 54,61 54,61 54,61 54,61 54,61 54,61 54,61 54,61 54,61 54,61 54,61 54,61 54,61 54,61 54,61 54,61 54,61 54,61 54,61 54,61 54,61 54,61 54,61 54,61 54,61 54,61 54,61 54,61 54,61 54,61 54,61 54,61 54,61 54,61 54,61 54,62 54,62 54,62 54,62 54,62 54,62 54,62 54,62 54,62 54,62 54,62 54,62 54,62 54,62 54,62 54,62 54,62 54,62 54,62 54,62 55,62 55,62 55,62 55,62 55,62 55,62 55,62 55,62 55,62 55,62 55,62 55,62 55,62 55,62 55,62 55,62 55,62 55,62 55,62 55,62 55,63 55,63 55,63 55,63 55,63 55,63 55,63 55,63 55,63 55,63 55,63 55,63 55,63 55,63 55,63 55,63 55,63 55,63 55,63 55,63 55,63 55,63 55,63 55,63 55,63 55,63 55,63 55,63 55,63 55,63 55,63 55,63 55,63 55,63 55,63 55,63 55,63 55,63 55,63 55,63 55,64 55,64 55,64 55,64 55,64 55,64 55,64 55,64 55,64 55,64 55,64 55,64 55,64 55,64 55,64 55,64 55,64 55,64 55,64 55,64 55,64 55,64 55,64 55,64 55,64 55,64 55,64 55,64 55,64 55,64 55,64 55,64 55,64 55,64 55,64 55,64 55,64 55,64 55,64 55,64 55,65 55,65 55,65 55,65 55,65 55,65 55,65 55,65 55,65 55,65 55,65 55,65 55,65 55,65 55,65 55,65 55,65 55,65 55,65 55,65 55,65 55,65 55,65 55,65 55,65 55,65 55,65 55,65 55,65 55,65 55,65 55,65 55,65 55,65 55,65 55,65 55,65 55,65 55,65 55,65 56,66 56,66 56,66 56,66 56,66 56,66 56,66 56,66 56,66 56,66 56,66 56,66 56,66 56,66 56,66 56,66 56,66 56,66 56,66 56,66 56,66 56,66 56,66 56,66 56,66 56,66 56,66 56,66 56,66 56,66 56,66 56,66 56,66 56,66 56,66 56,66 56,66 56,66 56,66 56,66 56,67 56,67 56,67 56,67 56,67 56,67 56,67 56,67 56,67 56,67 56,67 56,67 56,67 56,67 56,67 56,67 56,67 56,67 56,67 56,67 56,67 56,67 56,67 56,67 56,67 56,67 56,67 56,67 56,67 56,67 56,67 56,67 56,67 56,67 56,67 56,67 56,67 56,67 56,67 56,67 56,68 56,68 56,68 56,68 56,68 56,68 56,68 56,68 56,68 56,68 56,68 56,68 56,68 56,68 56,68 56,68 56,68 56,68 56,68 56,68 56,68 56,68 56,68 56,68 56,68 56,68 56,68 56,68 56,68 56,68 56,68 56,68 56,68 56,68 56,68 56,68 56,68 56,68 56,68 56,68 56,69 56,69 56,69 56,69 56,69 56,69 56,69 56,69 56,69 56,69 56,69 56,69 56,69 56,69 56,69 56,69 56,69 56,69 56,69 56,69 57,69 57,69 57,69 57,69 57,69 57,69 57,69 57,69 57,69 57,69 57,69 57,69 57,69 57,69 57,69 57,69 57,69 57,69 57,69 57,69 57,70 57,70 57,70 57,70 57,70 57,70 57,70 57,70 57,70 57,70 57,70 57,70 57,70 57,70 57,70 57,70 57,70 57,70 57,70 57,70 57,70 57,70 57,70 57,70 57,70 57,70 57,70 57,70 57,70 57,70 57,70 57,70 57,70 57,70 57,70 57,70 57,70 57,70 57,70 57,70 57,71 57,71 57,71 57,71 57,71 57,71 57,71 57,71 57,71 57,71 57,71 57,71 57,71 57,71 57,71 57,71 57,71 57,71 57,71 57,71 57,71 57,71 57,71 57,71 57,71 57,71 57,71 57,71 57,71 57,71 57,71 57,71 57,71 57,71 57,71 57,71 57,71 57,71 57,71 57,71 57,72 57,72 57,72 57,72 57,72 57,72 57,72 57,72 57,72 57,72 57,72 57,72 57,72 57,72 57,72 57,72 57,72 57,72 57,72 57,72 57,72 57,72 57,72 57,72 57,72 57,72 57,72 57,72 57,72 57,72 57,72 57,72 57,72 57,72 57,72 57,72 57,72 57,72 57,72 57,72 58,73 58,73 58,73 58,73 58,73 58,73 58,73 58,73 58,73 58,73 58,73 58,73 58,73 58,73 58,73 58,73 58,73 58,73 58,73 58,73 58,73 58,73 58,73 58,73 58,73 58,73 58,73 58,73 58,73 58,73 58,73 58,73 58,73 58,73 58,73 58,73 58,73 58,73 58,73 58,73 58,74 58,74 58,74 58,74 58,74 58,74 58,74 58,74 58,74 58,74 58,74 58,74 58,74 58,74 58,74 58,74 58,74 58,74 58,74 58,74 58,74 58,74 58,74 58,74 58,74 58,74 58,74 58,74 58,74 58,74 58,74 58,74 58,74 58,74 58,74 58,74 58,74 58,74 58,74 58,74 58,75 58,75 58,75 58,75 58,75 58,75 58,75 58,75 58,75 58,75 58,75 58,75 58,75 58,75 58,75 58,75 58,75 58,75 58,75 58,75 58,75 58,75 58,75 58,75 58,75 58,75 58,75 58,75 58,75 58,75 58,75 58,75 58,75 58,75 58,75 58,75 58,75 58,75 58,75 58,75 58,76 58,76 58,76 58,76 58,76 58,76 58,76 58,76 58,76 58,76 58,76 58,76 58,76 58,76 58,76 58,76 58,76 58,76 58,76 58,76 59,76 59,76 59,76 59,76 59,76 59,76 59,76 59,76 59,76 59,76 59,76 59,76 59,76 59,76 59,76 59,76 59,76 59,76 59,76 59,76 59,77 59,77 59,77 59,77 59,77 59,77 59,77 59,77 59,77 59,77 59,77 59,77 59,77 59,77 59,77 59,77 59,77 59,77 59,77 59,77 59,77 59,77 59,77 59,77 59,77 59,77 59,77 59,77 59,77 59,77 59,77 59,77 59,77 59,77 59,77 59,77 59,77 59,77 59,77 59,77 59,78 59,78 59,78 59,78 59,78 59,78 59,78 59,78 59,78 59,78 59,78 59,78 59,78 59,78 59,78 59,78 59,78 59,78 59,78 59,78 59,78 59,78 59,78 59,78 59,78 59,78 59,78 59,78 59,78 59,78 59,78 59,78 59,78 59,78 59,78 59,78 59,78 59,78 59,78 59,78 59,79 59,79 59,79 59,79 59,79 59,79 59,79 59,79 59,79 59,79 59,79 59,79 59,79 59,79 59,79 59,79 59,79 59,79 59,79 59,79 59,79 59,79 59,79 59,79 59,79 59,79 59,79 59,79 59,79 59,79 59,79 59,79 59,79 59,79 59,79 59,79 59,79 59,79 59,79 59,79 60,80" />
  <polygon style="stroke:rgb(255,0,0);stroke-width:2" points="61,80 61,80 60,80 61,80 60,80 60,80 60,80 60,80 61,80 60,80 60,80 61,80 61,80 61,80 60,80 61,80 61,80 61,80 60,80 61,80 60,80 60,80 60,80 60,80 61,80 60,80 61,80 61,80 61,80 61,80 61,80 60,80 61,80 61,80 60,80 61,80 60,80 60,80 60,80 60,80 61,80 60,80 61,80 61,80 60,80 60,80 61,80 60,80 61,80 61,80 60,80 61,80 60,80 60,80 60,80 61,80 61,80 60,80 60,80 60,80 61,80 60,80 61,80 61,80 61,80 61,80 60,80 61,80 60,80 60,80 60,80 60,80 61,80 60,80 61,80 61,80 61,80 60,80 60,80 61,80 60,80 60,80 61,80 60,80 60,80 60,80 60,80 60,80 61,80 61,80 60,80 61,80 60,80 60,80 60,80 60,80 61,80 60,80 61,80 61,80 60,80 60,80 61,80 60,80 61,80 61,80 60,80 61,80 60,80 60,80 60,80 60,80 61,80 60,80 61,80 61,80 60,80 61,80 60,80 61,80 61,80 61,80 60,80 61,80 60,80 60,80 60,80 61,80 61,80 60,80 60,80 60,80 60,80 61,80 61,80 61,80 61,80 61,80 60,80 61,80 60,80 60,80 60,80 60,80 61,80 60,80 61,80 61,80 61,80 61,80 60,80 61,80 61,80 61,80 60,80 61,80 60,80 60,80 60,80 61,80 61,80 60,80 60,80 60,80 61,80 60,80 61,80 61,80 61,80 61,80 60,80 61,80 60,80 60,80 60,80 60,80 61,80 60,80 61,80 61,80 61,80 60,80 60,80 61,80 60,80 60,80 61,80 60,80 60,80 60,80 60,80 60,80 61,80 61,80 60,80 61,80 60,80 60,80 60,80 60,80 61,80 60,80 61,80 61,80 61,80 60,80 61,80 60,80 61,80 61,80 60,80 61,80 60,80 60,80 60,80 60,80 61,80 60,80 61,80 61,80 60,80 60,80 60,80 60,80 61,80 61,80 60,80 61,80 60,80 60,80 60,80 60,80 61,80 60,80 61,80 61,80 61,80 60,80 60,80 61,80 61,80 61,80 60,80 61,80 60,80 60,80 60,80 61,80 61,80 60,80 60,80 60,80 60,80 61,80 60,80 60,80 61,80 61,80 61,80 61,80 61,80 61,80 61,80 61,80 61,80 61,80 61,80 61,80 61,80 61,80 61,80 61,80 61,80 61,80 61,80 61,80 61,80 61,80 61,80 61,80 61,80 61,80 61,80 61,80 61,80 61,80 61,80 61,80 61,80 61,80 61,80 61,80 61,80 61,80 61,80 61,80 61,80 61,80 61,80 61,80 61,80 61,80 61,80 61,80 61,80 61,80 61,80 61,80 61,80 61,80 61,80 61,80 61,80 61,80 61,80 62,81 62,81 62,81 62,81 62,81 62,81 62,81 62,81 62,81 62,81 62,81 62,81 62,81 62,81 62,81 62,81 62,81 62,81 62,81 62,81 62,81 62,81 62,81 62,81 62,81 62,81 62,81 62,81 62,81 62,81 62,81 62,81 62,81 62,81 62,81 62,81 62,81 62,81 62,81 62,81 62,81 62,81 62,81 62,81 62,81 62,81 62,81 62,81 62,81 62,81 62,81 62,81 62,81 62,81 62,81 62,81 62,81 62,81 62,81 62,81 62,81 62,81 62,81 62,81 62,81 62,81 62,81 62,81 62,81 62,81 62,81 62,81 62,81 62,81 62,81 62,81 62,81 62,81 62,81 62,81 62,81 62,81 62,81 62,81 62,81 62,81 62,81 62,81 62,81 62,81 62,81 62,81 62,81 62,81 62,81 62,81 62,81 62,81 62,81 62,81 62,81 62,81 62,81 62,81 62,81 62,81 62,81 62,81 62,81 62,81 62,81 62,81 62,81 62,81 62,81 62,81 62,81 62,81 62,81 62,81 62,81 62,81 62,81 62,81 62,81 62,81 62,81 62,81 62,81 62,81 62,81 62,81 62,81 62,81 62,81 62,81 62,81 62,81 62,81 62,81 62,81 62,81 62,81 62,81 62,81 62,81 62,81 62,81 62,81 62,81 62,81 62,81 62,81 62,81 62,81 62,81 62,81 62,81 63,81 63,81 63,81 63,81 63,81 63,81 63,81 63,81 63,81 63,81 63,81 63,81 63,81 63,81 63,81 63,81 63,81 63,81 63,81 63,81 63,81 63,81 63,81 63,81 63,81 63,81 63,81 63,81 63,81 63,81 63,81 63,81 63,81 63,81 63,81 63,81 63,81 63,81 63,81 63,81 63,81 63,81 63,81 63,81 63,81 63,81 63,81 63,81 63,81 63,81 63,81 63,81 63,81 63,81 63,81 63,81 63,81 63,81 63,81 63,81 63,81 63,81 63,81 63,81 63,81 63,81 63,81 63,81 63,81 63,81 63,81 63,81 63,81 63,81 63,81 63,81 63,81 63,81 63,81 63,81 63,81 63,81 63,81 63,81 63,81 63,81 63,81 63,81 63,81 63,81 63,81 63,81 63,81 63,81 63,81 63,81 63,81 63,81 63,81 63,81 63,81 63,81 63,81 63,81 63,81 63,81 63,81 63,81 63,81 63,81 63,81 63,81 63,81 63,81 63,81 63,81 63,81 63,81 63,81 63,81 63,81 63,81 63,81 63,81 63,81 63,81 63,81 63,81 63,81 63,81 63,81 63,81 63,81 63,81 63,81 63,81 63,81 63,81 63,81 63,81 63,81 63,81 63,81 63,81 63,81 63,81 63,81 63,81 63,81 63,81 63,81 63,81 63,81 63,81 63,81 63,81 63,81 64,82 64,82 64,82 64,82 64,82 64,82 64,82 64,82 64,82 64,82 64,82 64,82 64,82 64,82 64,82 64,82 64,82 64,82 64,82 64,82 64,82 64,82 64,82 64,82 64,82 64,82 64,82 64,82 64,82 64,82 64,82 64,82 64,82 64,82 64,82 64,82 64,82 64,82 64,82 64,82 64,82 64,82 64,82 64,82 64,82 64,82 64,82 64,82 64,82 64,82 64,82 64,82 64,82 64,82 64,82 64,82 64,82 64,82 64,82 64,82 64,82 64,82 64,82 64,82 64,82 64,82 64,82 64,82 64,82 64,82 64,82 64,82 64,82 64,82 64,82 64,82 64,82 64,82 64,82 64,82 64,82 64,82 64,82 64,82 64,82 64,82 64,82 64,82 64,82 64,82 64,82 64,82 64,82 64,82 64,82 64,82 64,82 64,82 64,82 64,82 64,82 64,82 64,82 64,82 64,82 64,82 64,82 64,82 64,82 64,82 64,82 64,82 64,82 64,82 64,82 64,82 64,82 64,82 64,82 64,82 64,82 64,82 64,82 64,82 64,82 64,82 64,82 64,82 64,82 64,82 64,82 64,82 64,82 64,82 64,82 64,82 64,82 64,82 64,82 64,82 64,82 64,82 64,82 64,82 64,82 64,82 64,82 64,82 64,82 64,82 64,82 64,82 64,82 64,82 64,82 64,82 64,82 64,82 65,82 65,82 65,82 65,82 65,82 65,82 65,82 65,82 65,82 65,82 65,82 65,82 65,82 65,82 65,82 65,82 65,82 65,82 65,82 65,82 65,82 65,82 65,82 65,82 65,82 65,82 65,82 65,82 65,82 65,82 65,82 65,82 65,82 65,82 65,82 65,82 65,82 65,82 65,82 65,82 65,82 65,82 65,82 65,82 65,82 65,82 65,82 65,82 65,82 65,82 65,82 65,82 65,82 65,82 65,82 65,82 65,82 65,82 65,82 65,82 65,82 65,82 65,82 65,82 65,82 65,82 65,82 65,82 65,82 65,82 65,82 65,82 65,82 65,82 65,82 65,82 65,82 65,82 65,82 65,82 65,82 65,82 65,82 65,82 65,82 65,82 65,82 65,82 65,82 65,82 65,82 65,82 65,82 65,82 65,82 65,82 65,82 65,82 65,82 65,82 65,82 65,82 65,82 65,82 65,82 65,82 65,82 65,82 65,82 65,82 65,82 65,82 65,82 65,82 65,82 65,82 65,82 65,82 65,82 65,82 65,82 65,82 65,82 65,82 65,82 65,82 65,82 65,82 65,82 65,82 65,82 65,82 65,82 65,82 65,82 65,82 65,82 65,82 65,82 65,82 65,82 65,82 65,82 65,82 65,82 65,82 65,82 65,82 65,82 65,82 65,82 65,82 65,82 65,82 65,82 65,82 65,82 66,83 66,83 66,83 66,83 66,83 66,83 66,83 66,83 66,83 66,83 66,83 66,83 66,83 66,83 66,83 66,83 66,83 66,83 66,83 66,83 66,83 66,83 66,83 66,83 66,83 66,83 66,83 66,83 66,83 66,83 66,83 66,83 66,83 66,83 66,83 66,83 66,83 66,83 66,83 66,83 66,83 66,83 66,83 66,83 66,83 66,83 66,83 66,83 66,83 66,83 66,83 66,83 66,83 66,83 66,83 66,83 66,83 66,83 66,83 66,83 66,83 66,83 66,83 66,83 66,83 66,83 66,83 66,83 66,83 66,83 66,83 66,83 66,83 66,83 66,83 66,83 66,83 66,83 66,83 66,83 66,83 66,83 66,83 66,83 66,83 66,83 66,83 66,83 66,83 66,83 66,83 66,83 66,83 66,83 66,83 66,83 66,83 66,83 66,83 66,83 66,83 66,83 66,83 66,83 66,83 66,83 66,83 66,83 66,83 66,83 66,83 66,83 66,83 66,83 66,83 66,83 66,83 66,83 66,83 66,83 66,83 66,83 66,83 66,83 66,83 66,83 66,83 66,83 66,83 66,83 66,83 66,83 66,83 66,83 66,83 66,83 66,83 66,83 66,83 66,83 66,83 66,83 66,83 66,83 66,83 66,83 66,83 66,83 66,83 66,83 66,83 66,83 66,83 66,83 66,83 66,83 66,83 66,83 67,83 67,83 67,83 67,83 67,83 67,83 67,83 67,83 67,83 67,83 67,83 67,83 67,83 67,83 67,83 67,83 67,83 67,83 67,83 67,83 67,83 67,83 67,83 67,83 67,83 67,83 67,83 67,83 67,83 67,83 67,83 67,83 67,83 67,83 67,83 67,83 67,83 67,83 67,83 67,83 67,83 67,83 67,83 67,83 67,83 67,83 67,83 67,83 67,83 67,83 67,83 67,83 67,83 67,83 67,83 67,83 67,83 67,83 67,83 67,83 67,83 67,83 67,83 67,83 67,83 67,83 67,83 67,83 67,83 67,83 67,83 67,83 67,83 67,83 67,83 67,83 67,83 67,83 67,83 67,83 67,83 67,83 67,83 67,83 67,83 67,83 67,83 67,83 67,83 67,83 67,83 67,83 67,83 67,83 67,83 67,83 67,83 67,83 67,83 67,83 67,83 67,83 67,83 67,83 67,83 67,83 67,83 67,83 67,83 67,83 67,83 67,83 67,83 67,83 67,83 67,83 67,83 67,83 67,83 67,83 67,83 67,83 67,83 67,83 67,83 67,83 67,83 67,83 67,83 67,83 67,83 67,83 67,83 67,83 67,83 67,83 67,83 67,83 67,83 67,83 67,83 67,83 67,83 67,83 67,83 67,83 67,83 67,83 67,83 67,83 67,83 67,83 67,83 67,83 67,83 67,83 67,83 68,84 68,84 68,84 68,84 68,84 68,84 68,84 68,84 68,84 68,84 68,84 68,84 68,84 68,84 68,84 68,84 68,84 68,84 68,84 68,84 68,84 68,84 68,84 68,84 68,84 68,84 68,84 68,84 68,84 68,84 68,84 68,84 68,84 68,84 68,84 68,84 68,84 68,84 68,84 68,84 68,84 68,84 68,84 68,84 68,84 68,84 68,84 68,84 68,84 68,84 68,84 68,84 68,84 68,84 68,84 68,84 68,84 68,84 68,84 68,84 68,84 68,84 68,84 68,84 68,84 68,84 68,84 68,84 68,84 68,84 68,84 68,84 68,84 68,84 68,84 68,84 68,84 68,84 68,84 68,84 68,84 68,84 68,84 68,84 68,84 68,84 68,84 68,84 68,84 68,84 68,84 68,84 68,84 68,84 68,84 68,84 68,84 68,84 68,84 68,84 68,84 68,84 68,84 68,84 68,84 68,84 68,84 68,84 68,84 68,84 68,84 68,84 68,84 68,84 68,84 68,84 68,84 68,84 68,84 68,84 68,84 68,84 68,84 68,84 68,84 68,84 68,84 68,84 68,84 68,84 68,84 68,84 68,84 68,84 68,84 68,84 68,84 68,84 68,84 68,84 68,84 68,84 68,84 68,84 68,84 68,84 68,84 68,84 68,84 68,84 68,84 68,84 68,84 68,84 68,84 68,84 68,84 68,84 69,84 69,84 69,84 69,84 69,84 69,84 69,84 69,84 69,84 69,84 69,84 69,84 69,84 69,84 69,84 69,84 69,84 69,84 69,84 69,84 69,84 69,84 69,84 69,84 69,84 69,84 69,84 69,84 69,84 69,84 69,84 69,84 69,84 69,84 69,84 69,84 69,84 69,84 69,84 69,84 69,84 69,84 69,84 69,84 69,84 69,84 69,84 69,84 69,84 69,84 69,84 69,84 69,84 69,84 69,84 69,84 69,84 69,84 69,84 69,84 69,84 69,84 69,84 69,84 69,84 69,84 69,84 69,84 69,84 69,84 69,84 69,84 69,84 69,84 69,84 69,84 69,84 69,84 69,84 69,84 69,84 69,84 69,84 69,84 69,84 69,84 69,84 69,84 69,84 69,84 69,84 69,84 69,84 69,84 69,84 69,84 69,84 69,84 69,84 69,84 69,84 69,84 69,84 69,84 69,84 69,84 69,84 69,84 69,84 69,84 69,84 69,84 69,84 69,84 69,84 69,84 69,84 69,84 69,84 69,84 69,84 69,84 69,84 69,84 69,84 69,84 69,84 69,84 69,84 69,84 69,84 69,84 69,84 69,84 69,84 69,84 69,84 69,84 69,84 69,84 69,84 69,84 69,84 69,84 69,84 69,84 69,84 69,84 69,84 69,84 69,84 69,84 69,84 69,84 69,84 69,84 69,84 70,85 70,85 70,85 70,85 70,85 70,85 70,85 70,85 70,85 70,85 70,85 70,85 70,85 70,85 70,85 70,85 70,85 70,85 70,85 70,85 70,85 70,85 70,85 70,85 70,85 70,85 70,85 70,85 70,85 70,85 70,85 70,85 70,85 70,85 70,85 70,85 70,85 70,85 70,85 70,85 70,85 70,85 70,85 70,85 70,85 70,85 70,85 70,85 70,85 70,85 70,85 70,85 70,85 70,85 70,85 70,85 70,85 70,85 70,85 70,85 70,85 70,85 70,85 70,85 70,85 70,85 70,85 70,85 70,85 70,85 70,85 70,85 70,85 70,85 70,85 70,85 70,85 70,85 70,85 70,85 70,85 70,85 70,85 70,85 70,85 70,85 70,85 70,85 70,85 70,85 70,85 70,85 70,85 70,85 70,85 70,85 70,85 70,85 70,85 70,85 70,85 70,85 70,85 70,85 70,85 70,85 70,85 70,85 70,85 70,85 70,85 70,85 70,85 70,85 70,85 70,85 70,85 70,85 70,85 70,85 70,85 70,85 70,85 70,85 70,85 70,85 70,85 70,85 70,85 70,85 70,85 70,85 70,85 70,85 70,85 70,85 70,85 70,85 70,85 70,85 70,85 70,85 70,85 70,85 70,85 70,85 70,85 70,85 70,85 70,85 70,85 70,85 70,85 70,85 70,85 70,85 70,85 70,85 71,85 71,85 71,85 71,85 71,85 71,85 71,85 71,85 71,85 71,85 71,85 71,85 71,85 71,85 71,85 71,85 71,85 71,85 71,85 71,85 71,85 71,85 71,85 71,85 71,85 71,85 71,85 71,85 71,85 71,85 71,85 71,85 71,85 71,85 71,85 71,85 71,85 71,85 71,85 71,85 71,85 71,85 71,85 71,85 71,85 71,85 71,85 71,85 71,85 71,85 71,85 71,85 71,85 71,85 71,85 71,85 71,85 71,85 71,85 71,85 71,85 71,85 71,85 71,85 71,85 71,85 71,85 71,85 71,85 71,85 71,85 71,85 71,85 71,85 71,85 71,85 71,85 71,85 71,85 71,85 71,85 71,85 71,85 71,85 71,85 71,85 71,85 71,85 71,85 71,85 71,85 71,85 71,85 71,85 71,85 71,85 71,85 71,85 71,85 71,85 71,85 71,85 71,85 71,85 71,85 71,85 71,85 71,85 71,85 71,85 71,85 71,85 71,85 71,85 71,85 71,85 71,85 71,85 71,85 71,85 71,85 71,85 71,85 71,85 71,85 71,85 71,85 71,85 71,85 71,85 71,85 71,85 71,85 71,85 71,85 71,85 71,85 71,85 71,85 71,85 71,85 71,85 71,85 71,85 71,85 71,85 71,85 71,85 71,85 71,85 71,85 71,85 71,85 71,85 71,85 71,85 71,85 72,86 72,86 72,86 72,86 72,86 72,86 72,86 72,86 72,86 72,86 72,86 72,86 72,86 72,86 72,86 72,86 72,86 72,86 72,86 72,86 72,86 72,86 72,86 72,86 72,86 72,86 72,86 72,86 72,86 72,86 72,86 72,86 72,86 72,86 72,86 72,86 72,86 72,86 72,86 72,86 72,86 72,86 72,86 72,86 72,86 72,86 72,86 72,86 72,86 72,86 72,86 72,86 72,86 72,86 72,86 72,86 72,86 72,86 72,86 72,86 72,86 72,86 72,86 72,86 72,86 72,86 72,86 72,86 72,86 72,86 72,86 72,86 72,86 72,86 72,86 72,86 72,86 72,86 72,86 72,86 72,86 72,86 72,86 72,86 72,86 72,86 72,86 72,86 72,86 72,86 72,86 72,86 72,86 72,86 72,86 72,86 72,86 72,86 72,86 72,86 72,86 72,86 72,86 72,86 72,86 72,86 72,86 72,86 72,86 72,86 72,86 72,86 72,86 72,86 72,86 72,86 72,86 72,86 72,86 72,86 72,86 72,86 72,86 72,86 72,86 72,86 72,86 72,86 72,86 72,86 72,86 72,86 72,86 72,86 72,86 72,86 72,86 72,86 72,86 72,86 72,86 72,86 72,86 72,86 72,86 72,86 72,86 72,86 72,86 72,86 72,86 72,86 72,86 72,86 72,86 72,86 72,86 72,86 73,86 73,86 73,86 73,86 73,86 73,86 73,86 73,86 73,86 73,86 73,86 73,86 73,86 73,86 73,86 73,86 73,86 73,86 73,86 73,86 73,86 73,86 73,86 73,86 73,86 73,86 73,86 73,86 73,86 73,86 73,86 73,86 73,86 73,86 73,86 73,86 73,86 73,86 73,86 73,86 73,86 73,86 73,86 73,86 73,86 73,86 73,86 73,86 73,86 73,86 73,86 73,86 73,86 73,86 73,86 73,86 73,86 73,86 73,86 73,86 73,86 73,86 73,86 73,86 73,86 73,86 73,86 73,86 73,86 73,86 73,86 73,86 73,86 73,86 73,86 73,86 73,86 73,86 73,86 73,86 73,86 73,86 73,86 73,86 73,86 73,86 73,86 73,86 73,86 73,86 73,86 73,86 73,86 73,86 73,86 73,86 73,86 73,86 73,86 73,86 73,86 73,86 73,86 73,86 73,86 73,86 73,86 73,86 73,86 73,86 73,86 73,86 73,86 73,86 73,86 73,86 73,86 73,86 73,86 73,86 73,86 73,86 73,86 73,86 73,86 73,86 73,86 73,86 73,86 73,86 73,86 73,86 73,86 73,86 73,86 73,86 73,86 73,86 73,86 73,86 73,86 73,86 73,86 73,86 73,86 73,86 73,86 73,86 73,86 73,86 73,86 73,86 73,86 73,86 73,86 73,86 73,86 74,87 74,87 74,87 74,87 74,87 74,87 74,87 74,87 74,87 74,87 74,87 74,87 74,87 74,87 74,87 74,87 74,87 74,87 74,87 74,87 74,87 74,87 74,87 74,87 74,87 74,87 74,87 74,87 74,87 74,87 74,87 74,87 74,87 74,87 74,87 74,87 74,87 74,87 74,87 74,87 74,87 74,87 74,87 74,87 74,87 74,87 74,87 74,87 74,87 74,87 74,87 74,87 74,87 74,87 74,87 74,87 74,87 74,87 74,87 74,87 74,87 74,87 74,87 74,87 74,87 74,87 74,87 74,87 74,87 74,87 74,87 74,87 74,87 74,87 74,87 74,87 74,87 74,87 74,87 74,87 74,87 74,87 74,87 74,87 74,87 74,87 74,87 74,87 74,87 74,87 74,87 74,87 74,87 74,87 74,87 74,87 74,87 74,87 74,87 74,87 74,87 74,87 74,87 74,87 74,87 74,87 74,87 74,87 74,87 74,87 74,87 74,87 74,87 74,87 74,87 74,87 74,87 74,87 74,87 74,87 74,87 74,87 74,87 74,87 74,87 74,87 74,87 74,87 74,87 74,87 74,87 74,87 74,87 74,87 74,87 74,87 74,87 74,87 74,87 74,87 74,87 74,87 74,87 74,87 74,87 74,87 74,87 74,87 74,87 74,87 74,87 74,87 74,87 74,87 74,87 74,87 74,87 74,87 75,87 75,87 75,87 75,87 75,87 75,87 75,87 75,87 75,87 75,87 75,87 75,87 75,87 75,87 75,87 75,87 75,87 75,87 75,87 75,87 75,87 75,87 75,87 75,87 75,87 75,87 75,87 75,87 75,87 75,87 75,87 75,87 75,87 75,87 75,87 75,87 75,87 75,87 75,87 75,87 75,87 75,87 75,87 75,87 75,87 75,87 75,87 75,87 75,87 75,87 75,87 75,87 75,87 75,87 75,87 75,87 75,87 75,87 75,87 75,87 75,87 75,87 75,87 75,87 75,87 75,87 75,87 75,87 75,87 75,87 75,87 75,87 75,87 75,87 75,87 75,87 75,87 75,87 75,87 75,87 75,87 75,87 75,87 75,87 75,87 75,87 75,87 75,87 75,87 75,87 75,87 75,87 75,87 75,87 75,87 75,87 75,87 75,87 75,87 75,87 75,87 75,87 75,87 75,87 75,87 75,87 75,87 75,87 75,87 75,87 75,87 75,87 75,87 75,87 75,87 75,87 75,87 75,87 75,87 75,87 75,87 75,87 75,87 75,87 75,87 75,87 75,87 75,87 75,87 75,87 75,87 75,87 75,87 75,87 75,87 75,87 75,87 75,87 75,87 75,87 75,87 75,87 75,87 75,87 75,87 75,87 75,87 75,87 75,87 75,87 75,87 75,87 75,87 75,87 75,87 75,87 75,87 76,88 76,88 76,88 76,88 76,88 76,88 76,88 76,88 76,88 76,88 76,88 76,88 76,88 76,88 76,88 76,88 76,88 76,88 76,88 76,88 76,88 76,88 76,88 76,88 76,88 76,88 76,88 76,88 76,88 76,88 76,88 76,88 76,88 76,88 76,88 76,88 76,88 76,88 76,88 76,88 76,88 76,88 76,88 76,88 76,88 76,88 76,88 76,88 76,88 76,88 76,88 76,88 76,88 76,88 76,88 76,88 76,88 76,88 76,88 76,88 76,88 76,88 76,88 76,88 76,88 76,88 76,88 76,88 76,88 76,88 76,88 76,88 76,88 76,88 76,88 76,88 76,88 76,88 76,88 76,88 76,88 76,88 76,88 76,88 76,88 76,88 76,88 76,88 76,88 76,88 76,88 76,88 76,88 76,88 76,88 76,88 76,88 76,88 76,88 76,88 76,88 76,88 76,88 76,88 76,88 76,88 76,88 76,88 76,88 76,88 76,88 76,88 76,88 76,88 76,88 76,88 76,88 76,88 76,88 76,88 76,88 76,88 76,88 76,88 76,88 76,88 76,88 76,88 76,88 76,88 76,88 76,88 76,88 76,88 76,88 76,88 76,88 76,88 76,88 76,88 76,88 76,88 76,88 76,88 76,88 76,88 76,88 76,88 76,88 76,88 76,88 76,88 76,88 76,88 76,88 76,88 76,88 76,88 77,88 77,88 77,88 77,88 77,88 77,88 77,88 77,88 77,88 77,88 77,88 77,88 77,88 77,88 77,88 77,88 77,88 77,88 77,88 77,88 77,88 77,88 77,88 77,88 77,88 77,88 77,88 77,88 77,88 77,88 77,88 77,88 77,88 77,88 77,88 77,88 77,88 77,88 77,88 77,88 77,88 77,88 77,88 77,88 77,88 77,88 77,88 77,88 77,88 77,88 77,88 77,88 77,88 77,88 77,88 77,88 77,88 77,88 77,88 77,88 77,88 77,88 77,88 77,88 77,88 77,88 77,88 77,88 77,88 77,88 77,88 77,88 77,88 77,88 77,88 77,88 77,88 77,88 77,88 77,88 77,88 77,88 77,88 77,88 77,88 77,88 77,88 77,88 77,88 77,88 77,88 77,88 77,88 77,88 77,88 77,88 77,88 77,88 77,88 77,88 77,88 77,88 77,88 77,88 77,88 77,88 77,88 77,88 77,88 77,88 77,88 77,88 77,88 77,88 77,88 77,88 77,88 77,88 77,88 77,88 77,88 77,88 77,88 77,88 77,88 77,88 77,88 77,88 77,88 77,88 77,88 77,88 77,88 77,88 77,88 77,88 77,88 77,88 77,88 77,88 77,88 77,88 77,88 77,88 77,88 77,88 77,88 77,88 77,88 77,88 77,88 77,88 77,88 77,88 77,88 77,88 77,88 78,89 78,89 78,89 78,89 78,89 78,89 78,89 78,89 78,89 78,89 78,89 78,89 78,89 78,89 78,89 78,89 78,89 78,89 78,89 78,89 78,89 78,89 78,89 78,89 78,89 78,89 78,89 78,89 78,89 78,89 78,89 78,89 78,89 78,89 78,89 78,89 78,89 78,89 78,89 78,89 78,89 78,89 78,89 78,89 78,89 78,89 78,89 78,89 78,89 78,89 78,89 78,89 78,89 78,89 78,89 78,89 78,89 78,89 78,89 78,89 78,89 78,89 78,89 78,89 78,89 78,89 78,89 78,89 78,89 78,89 78,89 78,89 78,89 78,89 78,89 78,89 78,89 78,89 78,89 78,89 78,89 78,89 78,89 78,89 78,89 78,89 78,89 78,89 78,89 78,89 78,89 78,89 78,89 78,89 78,89 78,89 78,89 78,89 78,89 78,89 78,89 78,89 78,89 78,89 78,89 78,89 78,89 78,89 78,89 78,89 78,89 78,89 78,89 78,89 78,89 78,89 78,89 78,89 78,89 78,89 78,89 78,89 78,89 78,89 78,89 78,89 78,89 78,89 78,89 78,89 78,89 78,89 78,89 78,89 78,89 78,89 78,89 78,89 78,89 78,89 78,89 78,89 78,89 78,89 78,89 78,89 78,89 78,89 78,89 78,89 78,89 78,89 78,89 78,89 78,89 78,89 78,89 78,89 79,89 79,89 79,89 79,89 79,89 79,89 79,89 79,89 79,89 79,89 79,89 79,89 79,89 79,89 79,89 79,89 79,89 79,89 79,89 79,89 79,89 79,89 79,89 79,89 79,89 79,89 79,89 79,89 79,89 79,89 79,89 79,89 79,89 79,89 79,89 79,89 79,89 79,89 79,89 79,89 79,89 79,89 79,89 79,89 79,89 79,89 79,89 79,89 79,89 79,89 79,89 79,89 79,89 79,89 79,89 79,89 79,89 79,89 79,89 79,89 79,89 79,89 79,89 79,89 79,89 79,89 79,89 79,89 79,89 79,89 79,89 79,89 79,89 79,89 79,89 79,89 79,89 79,89 79,89 79,89 79,89 79,89 79,89 79,89 79,89 79,89 79,89 79,89 79,89 79,89 79,89 79,89 79,89 79,89 79,89 79,89 79,89 79,89 79,89 79,89 79,89 79,89 79,89 79,89 79,89 79,89 79,89 79,89 79,89 79,89 79,89 79,89 79,89 79,89 79,89 79,89 79,89 79,89 79,89 79,89 79,89 79,89 79,89 79,89 79,89 79,89 79,89 79,89 79,89 79,89 79,89 79,89 79,89 79,89 79,89 79,89 79,89 79,89 79,89 79,89 79,89 79,89 79,89 79,89 79,89 79,89 79,89 79,89 79,89 79,89 79,89 79,89 79,89 79,89 79,89 79,89 79,89 80,90" />
  <polygon style="stroke:rgb(255,0,0);stroke-width:2" points="81,90 81,89 80,89 81,89 80,89 80,89 80,89 80,89 81,89 80,89 80,89 81,89 81,89 81,89 80,89 81,89 81,89 81,89 80,89 81,89 80,89 80,89 80,89 80,89 81,89 80,89 81,89 81,89 81,89 81,89 81,89 80,89 81,89 81,89 80,89 81,89 80,89 80,89 80,89 80,89 81,89 80,89 81,89 81,89 80,89 80,89 81,89 80,89 81,89 81,89 80,89 81,88 80,88 80,88 80,88 81,88 81,88 80,88 80,88 80,88 81,88 80,88 81,88 81,88 81,88 81,88 80,88 81,88 80,88 80,88 80,88 80,88 81,88 80,88 81,88 81,88 81,88 80,88 80,88 81,88 80,88 80,88 81,88 80,88 80,88 80,88 80,88 80,88 81,88 81,88 80,88 81,88 80,88 80,88 80,88 80,88 81,88 80,88 81,88 81,88 80,88 80,87 81,87 80,87 81,87 81,87 80,87 81,87 80,87 80,87 80,87 80,87 81,87 80,87 81,87 81,87 80,87 81,87 80,87 81,87 81,87 81,87 80,87 81,87 80,87 80,87 80,87 81,87 81,87 80,87 80,87 80,87 80,87 81,87 81,87 81,87 81,87 81,87 80,87 81,87 80,87 80,87 80,87 80,87 81,87 80,87 81,87 81,87 81,87 81,87 80,87 81,86 81,86 81,86 80,86 81,86 80,86 80,86 80,86 81,86 81,86 80,86 80,86 80,86 81,86 80,86 81,86 81,86 81,86 81,86 80,86 81,86 80,86 80,86 80,86 80,86 81,86 80,86 81,86 81,86 81,86 80,86 80,86 81,86 80,86 80,86 81,86 80,86 80,86 80,86 80,86 80,86 81,86 81,86 80,86 81,86 80,86 80,86 80,86 80,86 81,86 80,85 81,85 81,85 81,85 80,85 81,85 80,85 81,85 81,85 80,85 81,85 80,85 80,85 80,85 80,85 81,85 80,85 81,85 81,85 80,85 80,85 80,85 80,85 81,85 81,85 80,85 81,85 80,85 80,85 80,85 80,85 81,85 80,85 81,85 81,85 81,85 80,85 80,85 81,85 81,85 81,85 80,85 81,85 80,85 80,85 80,85 81,85 81,85 80,85 80,85 80,84 80,84 81,84 80,84 80,84 81,84 81,84 81,84 81,84 81,84 81,84 81,84 81,84 81,84 81,84 81,84 81,84 81,84 81,84 81,84 81,84 81,84 81,84 81,84 81,84 81,84 81,84 81,84 81,84 81,84 81,84 81,84 81,84 81,84 81,84 81,84 81,84 81,84 81,84 81,84 81,84 81,84 81,84 81,84 81,84 81,84 81,84 81,84 81,84 81,84 81,83 81,83 81,83 81,83 81,83 81,83 81,83 81,83 81,83 81,83 81,83 81,83 81,83 81,83 81,83 81,83 81,83 81,83 81,83 81,83 81,83 81,83 81,83 81,83 81,83 81,83 81,83 81,83 81,83 81,83 81,83 81,83 81,83 81,83 81,83 81,83 81,83 81,83 81,83 81,83 81,83 81,83 81,83 81,83 81,83 81,83 81,83 81,83 81,83 82,83 82,82 82,82 82,82 82,82 82,82 82,82 82,82 82,82 82,82 82,82 82,82 82,82 82,82 82,82 82,82 82,82 82,82 82,82 82,82 82,82 82,82 82,82 82,82 82,82 82,82 82,82 82,82 82,82 82,82 82,82 82,82 82,82 82,82 82,82 82,82 82,82 82,82 82,82 82,82 82,82 82,82 82,82 82,82 82,82 82,82 82,82 82,82 82,82 82,82 82,82 82,81 82,81 82,81 82,81 82,81 82,81 82,81 82,81 82,81 82,81 82,81 82,81 82,81 82,81 82,81 82,81 82,81 82,81 82,81 82,81 82,81 82,81 82,81 82,81 82,81 82,81 82,81 82,81 82,81 82,81 82,81 82,81 82,81 82,81 82,81 82,81 82,81 82,81 82,81 82,81 82,81 82,81 82,81 82,81 82,81 82,81 82,81 82,81 82,81 82,81 82,80 82,80 82,80 82,80 82,80 82,80 82,80 82,80 82,80 82,80 82,80 82,80 82,80 82,80 82,80 82,80 82,80 82,80 82,80 82,80 82,80 82,80 82,80 82,80 82,80 82,80 82,80 82,80 82,80 82,80 82,80 82,80 82,80 82,80 82,80 82,80 82,80 82,80 82,80 82,80 82,80 82,80 82,80 82,80 82,80 82,80 82,80 82,80 82,80 82,80 82,79 82,79 82,79 82,79 82,79 82,79 82,79 82,79 82,79 82,79 82,79 82,79 82,79 82,79 82,79 82,79 82,79 82,79 82,79 82,79 82,79 82,79 82,79 82,79 83,79 83,79 83,79 83,79 83,79 83,79 83,79 83,79 83,79 83,79 83,79 83,79 83,79 83,79 83,79 83,79 83,79 83,79 83,79 83,79 83,79 83,79 83,79 83,79 83,79 83,79 83,78 83,78 83,78 83,78 83,78 83,78 83,78 83,78 83,78 83,78 83,78 83,78 83,78 83,78 83,78 83,78 83,78 83,78 83,78 83,78 83,78 83,78 83,78 83,78 83,78 83,78 83,78 83,78 83,78 83,78 83,78 83,78 83,78 83,78 83,78 83,78 83,78 83,78 83,78 83,78 83,78 83,78 83,78 83,78 83,78 83,78 83,78 83,78 83,78 83,78 83,77 83,77 83,77 83,77 83,77 83,77 83,77 83,77 83,77 83,77 83,77 83,77 83,77 83,77 83,77 83,77 83,77 83,77 83,77 83,77 83,77 83,77 83,77 83,77 83,77 83,77 83,77 83,77 83,77 83,77 83,77 83,77 83,77 83,77 83,77 83,77 83,77 83,77 83,77 83,77 83,77 83,77 83,77 83,77 83,77 83,77 83,77 83,77 83,77 83,77 83,76 83,76 83,76 83,76 83,76 83,76 83,76 83,76 83,76 83,76 83,76 83,76 83,76 83,76 83,76 83,76 83,76 83,76 83,76 83,76 83,76 83,76 83,76 83,76 83,76 83,76 83,76 83,76 83,76 83,76 83,76 83,76 83,76 83,76 83,76 83,76 83,76 83,76 83,76 83,76 83,76 83,76 83,76 83,76 83,76 83,76 83,76 83,76 83,76 84,76 84,75 84,75 84,75 84,75 84,75 84,75 84,75 84,75 84,75 84,75 84,75 84,75 84,75 84,75 84,75 84,75 84,75 84,75 84,75 84,75 84,75 84,75 84,75 84,75 84,75 84,75 84,75 84,75 84,75 84,75 84,75 84,75 84,75 84,75 84,75 84,75 84,75 84,75 84,75 84,75 84,75 84,75 84,75 84,75 84,75 84,75 84,75 84,75 84,75 84,75 84,74 84,74 84,74 84,74 84,74 84,74 84,74 84,74 84,74 84,74 84,74 84,74 84,74 84,74 84,74 84,74 84,74 84,74 84,74 84,74 84,74 84,74 84,74 84,74 84,74 84,74 84,74 84,74 84,74 84,74 84,74 84,74 84,74 84,74 84,74 84,74 84,74 84,74 84,74 84,74 84,74 84,74 84,74 84,74 84,74 84,74 84,74 84,74 84,74 84,74 84,73 84,73 84,73 84,73 84,73 84,73 84,73 84,73 84,73 84,73 84,73 84,73 84,73 84,73 84,73 84,73 84,73 84,73 84,73 84,73 84,73 84,73 84,73 84,73 84,73 84,73 84,73 84,73 84,73 84,73 84,73 84,73 84,73 84,73 84,73 84,73 84,73 84,73 84,73 84,73 84,73 84,73 84,73 84,73 84,73 84,73 84,73 84,73 84,73 84,73 84,72 84,72 84,72 84,72 84,72 84,72 84,72 84,72 84,72 84,72 84,72 84,72 84,72 84,72 84,72 84,72 84,72 84,72 84,72 84,72 84,72 84,72 84,72 84,72 85,72 85,72 85,72 85,72 85,72 85,72 85,72 85,72 85,72 85,72 85,72 85,72 85,72 85,72 85,72 85,72 85,72 85,72 85,72 85,72 85,72 85,72 85,72 85,72 85,72 85,72 85,71 85,71 85,71 85,71 85,71 85,71 85,71 85,71 85,71 85,71 85,71 85,71 85,71 85,71 85,71 85,71 85,71 85,71 85,71 85,71 85,71 85,71 85,71 85,71 85,71 85,71 85,71 85,71 85,71 85,71 85,71 85,71 85,71 85,71 85,71 85,71 85,71 85,71 85,71 85,71 85,71 85,71 85,71 85,71 85,71 85,71 85,71 85,71 85,71 85,71 85,70 85,70 85,70 85,70 85,70 85,70 85,70 85,70 85,70 85,70 85,70 85,70 85,70 85,70 85,70 85,70 85,70 85,70 85,70 85,70 85,70 85,70 85,70 85,70 85,70 85,70 85,70 85,70 85,70 85,70 85,70 85,70 85,70 85,70 85,70 85,70 85,70 85,70 85,70 85,70 85,70 85,70 85,70 85,70 85,70 85,70 85,70 85,70 85,70 85,70 85,69 85,69 85,69 85,69 85,69 85,69 85,69 85,69 85,69 85,69 85,69 85,69 85,69 85,69 85,69 85,69 85,69 85,69 85,69 85,69 85,69 85,69 85,69 85,69 85,69 85,69 85,69 85,69 85,69 85,69 85,69 85,69 85,69 85,69 85,69 85,69 85,69 85,69 85,69 85,69 85,69 85,69 85,69 85,69 85,69 85,69 85,69 85,69 85,69 86,69 86,68 86,68 86,68 86,68 86,68 86,68 86,68 86,68 86,68 86,68 86,68 86,68 86,68 86,68 86,68 86,68 86,68 86,68 86,68 86,68 86,68 86,68 86,68 86,68 86,68 86,68 86,68 86,68 86,68 86,68 86,68 86,68 86,68 86,68 86,68 86,68 86,68 86,68 86,68 86,68 86,68 86,68 86,68 86,68 86,68 86,68 86,68 86,68 86,68 86,68 86,67 86,67 86,67 86,67 86,67 86,67 86,67 86,67 86,67 86,67 86,67 86,67 86,67 86,67 86,67 86,67 86,67 86,67 86,67 86,67 86,67 86,67 86,67 86,67 86,67 86,67 86,67 86,67 86,67 86,67 86,67 86,67 86,67 86,67 86,67 86,67 86,67 86,67 86,67 86,67 86,67 86,67 86,67 86,67 86,67 86,67 86,67 86,67 86,67 86,67 86,66 86,66 86,66 86,66 86,66 86,66 86,66 86,66 86,66 86,66 86,66 86,66 86,66 86,66 86,66 86,66 86,66 86,66 86,66 86,66 86,66 86,66 86,66 86,66 86,66 86,66 86,66 86,66 86,66 86,66 86,66 86,66 86,66 86,66 86,66 86,66 86,66 86,66 86,66 86,66 86,66 86,66 86,66 86,66 86,66 86,66 86,66 86,66 86,66 86,66 86,65 86,65 86,65 86,65 86,65 86,65 86,65 86,65 86,65 86,65 86,65 86,65 86,65 86,65 86,65 86,65 86,65 86,65 86,65 86,65 86,65 86,65 86,65 86,65 87,65 87,65 87,65 87,65 87,65 87,65 87,65 87,65 87,65 87,65 87,65 87,65 87,65 87,65 87,65 87,65 87,65 87,65 87,65 87,65 87,65 87,65 87,65 87,65 87,65 87,65 87,64 87,64 87,64 87,64 87,64 87,64 87,64 87,64 87,64 87,64 87,64 87,64 87,64 87,64 87,64 87,64 87,64 87,64 87,64 87,64 87,64 87,64 87,64 87,64 87,64 87,64 87,64 87,64 87,64 87,64 87,64 87,64 87,64 87,64 87,64 87,64 87,64 87,64 87,64 87,64 87,64 87,64 87,64 87,64 87,64 87,64 87,64 87,64 87,64 87,64 87,63 87,63 87,63 87,63 87,63 87,63 87,63 87,63 87,63 87,63 87,63 87,63 87,63 87,63 87,63 87,63 87,63 87,63 87,63 87,63 87,63 87,63 87,63 87,63 87,63 87,63 87,63 87,63 87,63 87,63 87,63 87,63 87,63 87,63 87,63 87,63 87,63 87,63 87,63 87,63 87,63 87,63 87,63 87,63 87,63 87,63 87,63 87,63 87,63 87,63 87,62 87,62 87,62 87,62 87,62 87,62 87,62 87,62 87,62 87,62 87,62 87,62 87,62 87,62 87,62 87,62 87,62 87,62 87,62 87,62 87,62 87,62 87,62 87,62 87,62 87,62 87,62 87,62 87,62 87,62 87,62 87,62 87,62 87,62 87,62 87,62 87,62 87,62 87,62 87,62 87,62 87,62 87,62 87,62 87,62 87,62 87,62 87,62 87,62 88,62 88,61 88,61 88,61 88,61 88,61 88,61 88,61 88,61 88,61 88,61 88,61 88,61 88,61 88,61 88,61 88,61 88,61 88,61 88,61 88,61 88,61 88,61 88,61 88,61 88,61 88,61 88,61 88,61 88,61 88,61 88,61 88,61 88,61 88,61 88,61 88,61 88,61 88,61 88,61 88,61 88,61 88,61 88,61 88,61 88,61 88,61 88,61 88,61 88,61 88,61 88,60 88,60 88,60 88,60 88,60 88,60 88,60 88,60 88,60 88,60 88,60 88,60 88,60 88,60 88,60 88,60 88,60 88,60 88,60 88,60 88,60 88,60 88,60 88,60 88,60 88,60 88,60 88,60 88,60 88,60 88,60 88,60 88,60 88,60 88,60 88,60 88,60 88,60 88,60 88,60 88,60 88,60 88,60 88,60 88,60 88,60 88,60 88,60 88,60 88,60 88,59 88,59 88,59 88,59 88,59 88,59 88,59 88,59 88,59 88,59 88,59 88,59 88,59 88,59 88,59 88,59 88,59 88,59 88,59 88,59 88,59 88,59 88,59 88,59 88,59 88,59 88,59 88,59 88,59 88,59 88,59 88,59 88,59 88,59 88,59 88,59 88,59 88,59 88,59 88,59 88,59 88,59 88,59 88,59 88,59 88,59 88,59 88,59 88,59 88,59 88,58 88,58 88,58 88,58 88,58 88,58 88,58 88,58 88,58 88,58 88,58 88,58 88,58 88,58 88,58 88,58 88,58 88,58 88,58 88,58 88,58 88,58 88,58 88,58 89,58 89,58 89,58 89,58 89,58 89,58 89,58 89,58 89,58 89,58 89,58 89,58 89,58 89,58 89,58 89,58 89,58 89,58 89,58 89,58 89,58 89,58 89,58 89,58 89,58 89,58 89,57 89,57 89,57 89,57 89,57 89,57 89,57 89,57 89,57 89,57 89,57 89,57 89,57 89,57 89,57 89,57 89,57 89,57 89,57 89,57 89,57 89,57 89,57 89,57 89,57 89,57 89,57 89,57 89,57 89,57 89,57 89,57 89,57 89,57 89,57 89,57 89,57 89,57 89,57 89,57 89,57 89,57 89,57 89,57 89,57 89,57 89,57 89,57 89,57 89,57 89,56 89,56 89,56 89,56 89,56 89,56 89,56 89,56 89,56 89,56 89,56 89,56 89,56 89,56 89,56 89,56 89,56 89,56 89,56 89,56 89,56 89,56 89,56 89,56 89,56 89,56 89,56 89,56 89,56 89,56 89,56 89,56 89,56 89,56 89,56 89,56 89,56 89,56 89,56 89,56 89,56 89,56 89,56 89,56 89,56 89,56 89,56 89,56 89,56 89,56 89,55 89,55 89,55 89,55 89,55 89,55 89,55 89,55 89,55 89,55 89,55 89,55 89,55 89,55 89,55 89,55 89,55 89,55 89,55 89,55 89,55 89,55 89,55 89,55 89,55 89,55 89,55 89,55 89,55 89,55 89,55 89,55 89,55 89,55 89,55 89,55 89,55 89,55 89,55 89,55 89,55 89,55 89,55 89,55 89,55 89,55 89,55 89,55 89,55 90,55 90,54 90,54 90,54 90,54 90,54 90,54 90,54 90,54 90,54 90,54 90,54 90,54 90,54 90,54 90,54 90,54 90,54 90,54 90,54 90,54 90,54 90,54 90,54 90,54 90,54 90,54 90,54 90,54 90,54 90,54 90,54 90,54 90,54 90,54 90,54 90,54 90,54 90,54 90,54 90,54 90,54 90,54 90,54 90,54 90,54 90,54 90,54 90,54 90,54 90,54 90,53 90,53 90,53 90,53 90,53 90,53 90,53 90,53 90,53 90,53 90,53 90,53 90,53 90,53 90,53 90,53 90,53 90,53 90,53 90,53 90,53 90,53 90,53 90,53 90,53 90,53 90,53 90,53 90,53 90,53 90,53 90,53 90,53 90,53 90,53 90,53 90,53 90,53 90,53 90,53 90,53 90,53 90,53 90,53 90,53 90,53 90,53 90,53 90,53 90,53 90,52 90,52 90,52 90,52 90,52 90,52 90,52 90,52 90,52 90,52 90,52 90,52 90,52 90,52 90,52 90,52 90,52 90,52 90,52 90,52 90,52 90,52 90,52 90,52 90,52 90,52 90,52 90,52 90,52 90,52 90,52 90,52 90,52 90,52 90,52 90,52 90,52 90,52 90,52 90,52 90,52 90,52 90,52 90,52 90,52 90,52 90,52 90,52 90,52 90,52 90,51 90,51 90,51 90,51 90,51 90,51 90,51 90,51 90,51 90,51 90,51 90,51 90,51 90,51 90,51 90,51 90,51 90,51 90,51 90,51 90,51 90,51 90,51 90,51 91,51 91,51 91,51 91,51 91,51 91,51 91,51 91,51 91,51 91,51 91,51 91,51 91,51 91,51 91,51 91,51 91,51 91,51 91,51 91,51 91,51 91,51 91,51 91,51 91,51 91,51 91,50 91,50 91,50 91,50 91,50 91,50 91,50 91,50 91,50 91,50 91,50 91,50 91,50 91,50 91,50 91,50 91,50 91,50 91,50 91,50 91,50 91,50 91,50 91,50 91,50 91,50 91,50 91,50 91,50 91,50 91,50 91,50 91,50 91,50 91,50 91,50 91,50 91,50 91,50 91,50 91,50 91,50 91,50 91,50 91,50 91,50 91,50 91,50 91,50 91,50 91,49 91,49 91,49 91,49 91,49 91,49 91,49 91,49 91,49 91,49 91,49 91,49 91,49 91,49 91,49 91,49 91,49 91,49 91,49 91,49 91,49 91,49 91,49 91,49 91,49 91,49 91,49 91,49 91,49 91,49 91,49 91,49 91,49 91,49 91,49 91,49 91,49 91,49 91,49 91,49 91,49 91,49 91,49 91,49 91,49 91,49 91,49 91,49 91,49 91,49 91,48 91,48 91,48 91,48 91,48 91,48 91,48 91,48 91,48 91,48 91,48 91,48 91,48 91,48 91,48 91,48 91,48 91,48 91,48 91,48 91,48 91,48 91,48 91,48 91,48 91,48 91,48 91,48 91,48 91,48 91,48 91,48 91,48 91,48 91,48 91,48 91,48 91,48 91,48 91,48 91,48 91,48 91,48 91,48 91,48 91,48 91,48 91,48 91,48 92,48 92,47 92,47 92,47 92,47 92,47 92,47 92,47 92,47 92,47 92,47 92,47 92,47 92,47 92,47 92,47 92,47 92,47 92,47 92,47 92,47 92,47 92,47 92,47 92,47 92,47 92,47 92,47 92,47 92,47 92,47 92,47 92,47 92,47 92,47 92,47 92,47 92,47 92,47 92,47 92,47 92,47 92,47 92,47 92,47 92,47 92,47 92,47 92,47 92,47 92,47 92,46 92,46 92,46 92,46 92,46 92,46 92,46 92,46 92,46 92,46 92,46 92,46 92,46 92,46 92,46 92,46 92,46 92,46 92,46 92,46 92,46 92,46 92,46 92,46 92,46 92,46 92,46 92,46 92,46 92,46 92,46 92,46 92,46 92,46 92,46 92,46 92,46 92,46 92,46 92,46 92,46 92,46 92,46 92,46 92,46 92,46 92,46 92,46 92,46 92,46 92,45 92,45 92,45 92,45 92,45 92,45 92,45 92,45 92,45 92,45 92,45 92,45 92,45 92,45 92,45 92,45 92,45 92,45 92,45 92,45 92,45 92,45 92,45 92,45 92,45 92,45 92,45 92,45 92,45 92,45 92,45 92,45 92,45 92,45 92,45 92,45 92,45 92,45 92,45 92,45 92,45 92,45 92,45 92,45 92,45 92,45 92,45 92,45 92,45 92,45 92,44 92,44 92,44 92,44 92,44 92,44 92,44 92,44 92,44 92,44 92,44 92,44 92,44 92,44 92,44 92,44 92,44 92,44 92,44 92,44 92,44 92,44 92,44 92,44 93,44 93,44 93,44 93,44 93,44 93,44 93,44 93,44 93,44 93,44 93,44 93,44 93,44 93,44 93,44 93,44 93,44 93,44 93,44 93,44 93,44 93,44 93,44 93,44 93,44 93,44 93,43 93,43 93,43 93,43 93,43 93,43 93,43 93,43 93,43 93,43 93,43 93,43 93,43 93,43 93,43 93,43 93,43 93,43 93,43 93,43 93,43 93,43 93,43 93,43 93,43 93,43 93,43 93,43 93,43 93,43 93,43 93,43 93,43 93,43 93,43 93,43 93,43 93,43 93,43 93,43 93,43 93,43 93,43 93,43 93,43 93,43 93,43 93,43 93,43 93,43 93,42 93,42 93,42 93,42 93,42 93,42 93,42 93,42 93,42 93,42 93,42 93,42 93,42 93,42 93,42 93,42 93,42 93,42 93,42 93,42 93,42 93,42 93,42 93,42 93,42 93,42 93,42 93,42 93,42 93,42 93,42 93,42 93,42 93,42 93,42 93,42 93,42 93,42 93,42 93,42 93,42 93,42 93,42 93,42 93,42 93,42 93,42 93,42 93,42 93,42 93,41 93,41 93,41 93,41 93,41 93,41 93,41 93,41 93,41 93,41 93,41 93,41 93,41 93,41 93,41 93,41 93,41 93,41 93,41 93,41 93,41 93,41 93,41 93,41 93,41 93,41 93,41 93,41 93,41 93,41 93,41 93,41 93,41 93,41 93,41 93,41 93,41 93,41 93,41 93,41 93,41 93,41 93,41 93,41 93,41 93,41 93,41 93,41 93,41 94,41 94,40 94,40 94,40 94,40 94,40 94,40 94,40 94,40 94,40 94,40 94,40 94,40 94,40 94,40 94,40 94,40 94,40 94,40 94,40 94,40 94,40 94,40 94,40 94,40 94,40 94,40 94,40 94,40 94,40 94,40 94,40 94,40 94,40 94,40 94,40 94,40 94,40 94,40 94,40 94,40 94,40 94,40 94,40 94,40 94,40 94,40 94,40 94,40 94,40 94,40 94,39 94,39 94,39 94,39 94,39 94,39 94,39 94,39 94,39 94,39 94,39 94,39 94,39 94,39 94,39 94,39 94,39 94,39 94,39 94,39 94,39 94,39 94,39 94,39 94,39 94,39 94,39 94,39 94,39 94,39 94,39 94,39 94,39 94,39 94,39 94,39 94,39 94,39 94,39 94,39 94,39 94,39 94,39 94,39 94,39 94,39 94,39 94,39 94,39 94,39 94,38 94,38 94,38 94,38 94,38 94,38 94,38 94,38 94,38 94,38 94,38 94,38 94,38 94,38 94,38 94,38 94,38 94,38 94,38 94,38 94,38 94,38 94,38 94,38 94,38 94,38 94,38 94,38 94,38 94,38 94,38 94,38 94,38 94,38 94,38 94,38 94,38 94,38 94,38 94,38 94,38 94,38 94,38 94,38 94,38 94,38 94,38 94,38 94,38 94,38 94,37 94,37 94,37 94,37 94,37 94,37 94,37 94,37 94,37 94,37 94,37 94,37 94,37 94,37 94,37 94,37 94,37 94,37 94,37 94,37 94,37 94,37 94,37 94,37 95,37 95,37 95,37 95,37 95,37 95,37 95,37 95,37 95,37 95,37 95,37 95,37 95,37 95,37 95,37 95,37 95,37 95,37 95,37 95,37 95,37 95,37 95,37 95,37 95,37 95,37 95,36 95,36 95,36 95,36 95,36 95,36 95,36 95,36 95,36 95,36 95,36 95,36 95,36 95,36 95,36 95,36 95,36 95,36 95,36 95,36 95,36 95,36 95,36 95,36 95,36 95,36 95,36 95,36 95,36 95,36 95,36 95,36 95,36 95,36 95,36 95,36 95,36 95,36 95,36 95,36 95,36 95,36 95,36 95,36 95,36 95,36 95,36 95,36 95,36 95,36 95,35 95,35 95,35 95,35 95,35 95,35 95,35 95,35 95,35 95,35 95,35 95,35 95,35 95,35 95,35 95,35 95,35 95,35 95,35 95,35 95,35 95,35 95,35 95,35 95,35 95,35 95,35 95,35 95,35 95,35 95,35 95,35 95,35 95,35 95,35 95,35 95,35 95,35 95,35 95,35 95,35 95,35 95,35 95,35 95,35 95,35 95,35 95,35 95,35 95,35 95,34 95,34 95,34 95,34 95,34 95,34 95,34 95,34 95,34 95,34 95,34 95,34 95,34 95,34 95,34 95,34 95,34 95,34 95,34 95,34 95,34 95,34 95,34 95,34 95,34 95,34 95,34 95,34 95,34 95,34 95,34 95,34 95,34 95,34 95,34 95,34 95,34 95,34 95,34 95,34 95,34 95,34 95,34 95,34 95,34 95,34 95,34 95,34 95,34 96,34 96,33 96,33 96,33 96,33 96,33 96,33 96,33 96,33 96,33 96,33 96,33 96,33 96,33 96,33 96,33 96,33 96,33 96,33 96,33 96,33 96,33 96,33 96,33 96,33 96,33 96,33 96,33 96,33 96,33 96,33 96,33 96,33 96,33 96,33 96,33 96,33 96,33 96,33 96,33 96,33 96,33 96,33 96,33 96,33 96,33 96,33 96,33 96,33 96,33 96,33 96,32 96,32 96,32 96,32 96,32 96,32 96,32 96,32 96,32 96,32 96,32 96,32 96,32 96,32 96,32 96,32 96,32 96,32 96,32 96,32 96,32 96,32 96,32 96,32 96,32 96,32 96,32 96,32 96,32 96,32 96,32 96,32 96,32 96,32 96,32 96,32 96,32 96,32 96,32 96,32 96,32 96,32 96,32 96,32 96,32 96,32 96,32 96,32 96,32 96,31 96,31 96,31 96,31 96,31 96,31 96,31 96,31 96,31 96,31 96,31 96,31 96,31 96,31 96,31 96,31 96,31 96,31 96,31 96,31 96,31 96,31 96,31 96,31 96,31 96,31 96,31 96,31 96,31 96,31 96,31 96,31 96,31 96,31 96,31 96,31 96,31 96,31 96,31 96,31 96,31 96,31 96,31 96,31 96,31 96,31 96,31 96,31 96,31 96,31 96,31 96,30 96,30 96,30 96,30 96,30 96,30 96,30 96,30 96,30 96,30 96,30 96,30 96,30 96,30 96,30 96,30 96,30 96,30 96,30 96,30 96,30 96,30 96,30 96,30 97,30 97,30 97,30 97,30 97,30 97,30 97,30 97,30 97,30 97,30 97,30 97,30 97,30 97,30 97,30 97,30 97,30 97,30 97,30 97,30 97,30 97,30 97,30 97,30 97,30 97,30 97,29 97,29 97,29 97,29 97,29 97,29 97,29 97,29 97,29 97,29 97,29 97,29 97,29 97,29 97,29 97,29 97,29 97,29 97,29 97,29 97,29 97,29 97,29 97,29 97,29 97,29 97,29 97,29 97,29 97,29 97,29 97,29 97,29 97,29 97,29 97,29 97,29 97,29 97,29 97,29 97,29 97,29 97,29 97,29 97,29 97,29 97,29 97,29 97,29 97,29 97,28 97,28 97,28 97,28 97,28 97,28 97,28 97,28 97,28 97,28 97,28 97,28 97,28 97,28 97,28 97,28 97,28 97,28 97,28 97,28 97,28 97,28 97,28 97,28 97,28 97,28 97,28 97,28 97,28 97,28 97,28 97,28 97,28 97,28 97,28 97,28 97,28 97,28 97,28 97,28 97,28 97,28 97,28 97,28 97,28 97,28 97,28 97,28 97,28 97,28 97,27 97,27 97,27 97,27 97,27 97,27 97,27 97,27 97,27 97,27 97,27 97,27 97,27 97,27 97,27 97,27 97,27 97,27 97,27 97,27 97,27 97,27 97,27 97,27 97,27 97,27 97,27 97,27 97,27 97,27 97,27 97,27 97,27 97,27 97,27 97,27 97,27 97,27 97,27 97,27 97,27 97,27 97,27 97,27 97,27 97,27 97,27 97,27 97,27 98,27 98,26 98,26 98,26 98,26 98,26 98,26 98,26 98,26 98,26 98,26 98,26 98,26 98,26 98,26 98,26 98,26 98,26 98,26 98,26 98,26 98,26 98,26 98,26 98,26 98,26 98,26 98,26 98,26 98,26 98,26 98,26 98,26 98,26 98,26 98,26 98,26 98,26 98,26 98,26 98,26 98,26 98,26 98,26 98,26 98,26 98,26 98,26 98,26 98,26 98,26 98,25 98,25 98,25 98,25 98,25 98,25 98,25 98,25 98,25 98,25 98,25 98,25 98,25 98,25 98,25 98,25 98,25 98,25 98,25 98,25 98,25 98,25 98,25 98,25 98,25 98,25 98,25 98,25 98,25 98,25 98,25 98,25 98,25 98,25 98,25 98,25 98,25 98,25 98,25 98,25 98,25 98,25 98,25 98,25 98,25 98,25 98,25 98,25 98,25 98,25 98,24 98,24 98,24 98,24 98,24 98,24 98,24 98,24 98,24 98,24 98,24 98,24 98,24 98,24 98,24 98,24 98,24 98,24 98,24 98,24 98,24 98,24 98,24 98,24 98,24 98,24 98,24 98,24 98,24 98,24 98,24 98,24 98,24 98,24 98,24 98,24 98,24 98,24 98,24 98,24 98,24 98,24 98,24 98,24 98,24 98,24 98,24 98,24 98,24 98,24 98,23 98,23 98,23 98,23 98,23 98,23 98,23 98,23 98,23 98,23 98,23 98,23 98,23 98,23 98,23 98,23 98,23 98,23 98,23 98,23 98,23 98,23 98,23 98,23 99,23 99,23 99,23 99,23 99,23 99,23 99,23 99,23 99,23 99,23 99,23 99,23 99,23 99,23 99,23 99,23 99,23 99,23 99,23 99,23 99,23 99,23 99,23 99,23 99,23 99,23 99,22 99,22 99,22 99,22 99,22 99,22 99,22 99,22 99,22 99,22 99,22 99,22 99,22 99,22 99,22 99,22 99,22 99,22 99,22 99,22 99,22 99,22 99,22 99,22 99,22 99,22 99,22 99,22 99,22 99,22 99,22 99,22 99,22 99,22 99,22 99,22 99,22 99,22 99,22 99,22 99,22 99,22 99,22 99,22 99,22 99,22 99,22 99,22 99,22 99,22 99,21 99,21 99,21 99,21 99,21 99,21 99,21 99,21 99,21 99,21 99,21 99,21 99,21 99,21 99,21 99,21 99,21 99,21 99,21 99,21 99,21 99,21 99,21 99,21 99,21 99,21 99,21 99,21 99,21 99,21 99,21 99,21 99,21 99,21 99,21 99,21 99,21 99,21 99,21 99,21 99,21 99,21 99,21 99,21 99,21 99,21 99,21 99,21 99,21 99,21 99,20 99,20 99,20 99,20 99,20 99,20 99,20 99,20 99,20 99,20 99,20 99,20 99,20 99,20 99,20 99,20 99,20 99,20 99,20 99,20 99,20 99,20 99,20 99,20 99,20 99,20 99,20 99,20 99,20 99,20 99,20 99,20 99,20 99,20 99,20 99,20 99,20 99,20 99,20 99,20 99,20 99,20 99,20 99,20 99,20 99,20 99,20 99,20 99,20 100,20" />
</svg>